<svg xmlns="http://www.w3.org/2000/svg" width="59.5" height="35.096"><defs><linearGradient id="barbell-a" x1=".5" x2=".5" y2="1" gradientUnits="objectBoundingBox"><stop offset="0" stop-color="#88ec00"/><stop offset="1" stop-color="#e79c07"/></linearGradient></defs><path d="M57.466 117.028h-1.452v-5.869a2.5 2.5 0 00-2.5-2.5H49.8a2.486 2.486 0 00-.755.117v-.35A3.432 3.432 0 0045.613 105h-4.649a3.432 3.432 0 00-3.428 3.428v10.26H21.964v-10.26A3.432 3.432 0 0018.536 105h-4.649a3.432 3.432 0 00-3.428 3.428v.35a2.486 2.486 0 00-.755-.117H5.985a2.5 2.5 0 00-2.5 2.5v1.126a.872.872 0 001.743 0v-1.126a.756.756 0 01.755-.755H9.7a.756.756 0 01.755.755v22.777a.756.756 0 01-.755.755H5.985a.756.756 0 01-.755-.755v-17.924a.872.872 0 00-1.743 0v1.013H2.034A2.036 2.036 0 000 119.062v6.973a2.036 2.036 0 002.034 2.034h1.452v5.869a2.5 2.5 0 002.5 2.5H9.7a2.486 2.486 0 00.755-.117v.35a3.432 3.432 0 003.428 3.428h4.648a3.432 3.432 0 003.428-3.428v-10.26h1.269a.872.872 0 000-1.743h-1.264v-4.232h15.572v4.232H27.011a.872.872 0 000 1.743h10.525v10.26a3.432 3.432 0 003.428 3.428h4.648a3.432 3.432 0 003.428-3.428v-.35a2.486 2.486 0 00.755.117h3.719a2.5 2.5 0 002.5-2.5v-1.178a.872.872 0 00-1.743 0v1.177a.756.756 0 01-.755.755H49.8a.756.756 0 01-.755-.755v-22.778a.756.756 0 01.755-.755h3.719a.756.756 0 01.755.755V129a.872.872 0 001.743 0v-.93h1.453a2.036 2.036 0 002.034-2.034v-6.973a2.036 2.036 0 00-2.038-2.035zm-55.433 9.3a.291.291 0 01-.291-.291v-6.973a.291.291 0 01.291-.291h1.453v7.554zm18.187 10.343a1.687 1.687 0 01-1.685 1.685h-4.648a1.687 1.687 0 01-1.685-1.685v-28.243a1.687 1.687 0 011.685-1.685h4.648a1.687 1.687 0 011.685 1.685zm27.077 0a1.687 1.687 0 01-1.685 1.685h-4.648a1.687 1.687 0 01-1.685-1.685v-28.243a1.687 1.687 0 011.685-1.685h4.648a1.687 1.687 0 011.685 1.685zm10.459-10.633a.291.291 0 01-.291.291h-1.451v-7.554h1.453a.291.291 0 01.291.291z" fill="url(#barbell-a)" transform="translate(0 -105)"/></svg>