<svg xmlns="http://www.w3.org/2000/svg" width="53.007" height="53.007"><defs><linearGradient id="face-a" x1=".5" x2=".5" y2="1" gradientUnits="objectBoundingBox"><stop offset="0" stop-color="#88ec00"/><stop offset="1" stop-color="#e79c07"/></linearGradient><style>.face-a{fill:url(#face-a)}</style></defs><path class="face-a" d="M52.529 23.946l-7.23-8.573A16.084 16.084 0 0044.336.5a1.035 1.035 0 00-1.911.41 25.931 25.931 0 01-19.24 19.153A28.122 28.122 0 002.499 40.414q-1.04.568-2.035 1.224a1.035 1.035 0 101.142 1.727 25.963 25.963 0 018.3-3.6 28 28 0 009.509-4.265 1.035 1.035 0 00-1.182-1.7 25.933 25.933 0 01-8.805 3.945A28.131 28.131 0 005.01 39.2a25.918 25.918 0 0118.658-17.124 28.13 28.13 0 004.415-1.453 25.9 25.9 0 01-3.495 6.891 1.035 1.035 0 101.687 1.2 27.971 27.971 0 004.324-9.305 28.114 28.114 0 006.408-4.8A28.106 28.106 0 0043.699 3.9a13.922 13.922 0 01-.551 11.159 1.035 1.035 0 00.132 1.136l7.634 9.047-2.96 1.947a1.035 1.035 0 00-.318 1.4l1.139 1.892a1.824 1.824 0 01-.859 2.623 1.035 1.035 0 00-.289 1.729 1.7 1.7 0 01-.347 2.778l-.064.033a1.035 1.035 0 00-.558.918v3.468a3.317 3.317 0 01-3.313 3.313h-6.073a13.8 13.8 0 00-7.48 2.2L24.261 51.1a1.035 1.035 0 101.12 1.741l5.531-3.557a11.734 11.734 0 016.36-1.869h6.077a5.39 5.39 0 005.383-5.383v-2.89a3.77 3.77 0 001.088-4.825 3.9 3.9 0 00.731-4.9l-.626-1.04 2.168-1.427a2.028 2.028 0 00.435-3zM.528 19.785a1.035 1.035 0 001.41-.394 18.925 18.925 0 001.913-4.878 16.783 16.783 0 0112.47-12.47 1.035 1.035 0 00-.482-2.014 18.931 18.931 0 00-14 14 16.857 16.857 0 01-1.7 4.345 1.035 1.035 0 00.394 1.41z"/><path class="face-a" d="M22.414 30.628a1.034 1.034 0 10.732.3 1.042 1.042 0 00-.732-.3z"/></svg>