<svg xmlns="http://www.w3.org/2000/svg" width="60.5" height="48.33"><defs><linearGradient id="favourite-a" x1=".5" x2=".5" y2="1" gradientUnits="objectBoundingBox"><stop offset="0" stop-color="#88ec00"/><stop offset="1" stop-color="#e79c07"/></linearGradient></defs><path d="M28.089 99C3.425 77.055 5.106 78.559 4.766 78.232a15.607 15.607 0 013.018-24.7.886.886 0 01.885 1.536A13.82 13.82 0 006.42 77.347l22.847 20.328a1.477 1.477 0 001.964 0l7.319-6.512a.886.886 0 011.178 1.324L32.409 99a3.25 3.25 0 01-4.32 0zm13.478-9.334a.886.886 0 01.073-1.251l12.438-11.067a13.486 13.486 0 004.552-8.533 13.805 13.805 0 00-27.2-4.609 1.208 1.208 0 01-2.362 0 13.86 13.86 0 00-16.809-10.558.886.886 0 11-.407-1.725 15.615 15.615 0 0118.4 9.948 15.584 15.584 0 0126.007-5.515 16 16 0 014.133 12.672 15.233 15.233 0 01-5.133 9.643L42.818 89.738a.886.886 0 01-1.251-.073z" transform="translate(0 -51.491)" fill="url(#favourite-a)"/></svg>