<svg xmlns="http://www.w3.org/2000/svg" width="25.377" height="60.331"><defs><linearGradient id="lb-a" x1=".5" x2=".5" y2="1" gradientUnits="objectBoundingBox"><stop offset="0" stop-color="#88ec00"/><stop offset="1" stop-color="#e79c07"/></linearGradient><style>.lb-a{fill:url(#lb-a)}</style></defs><path class="lb-a" d="M15.698 48.234a.884.884 0 00-1.243.134L6.307 58.483a.18.18 0 01-.3-.187l4.9-10.836a1.948 1.948 0 00-1.672-2.747l-4.563-.24a.18.18 0 01-.15-.263l7.034-13.571a1.948 1.948 0 00-1.729-2.844H1.955a.181.181 0 01-.179-.2l5.035-14.61a.884.884 0 00-1.671-.576L.081 27.07a.83.83 0 00-.021.071 1.948 1.948 0 001.888 2.425H9.82a.18.18 0 01.16.263L2.946 43.4a1.948 1.948 0 001.627 2.841l4.563.24a.18.18 0 01.155.254L4.393 57.57a1.905 1.905 0 00.754 2.461 1.977 1.977 0 001.038.3 1.918 1.918 0 001.5-.739l8.148-10.115a.884.884 0 00-.134-1.242z"/><path class="lb-a" d="M23.34 20.437h-5.643a.18.18 0 01-.165-.253l7.679-17.453A1.947 1.947 0 0023.428 0H10.793a1.946 1.946 0 00-1.877 1.429L6.351 8.872a.884.884 0 001.671.576l2.575-7.473a.83.83 0 00.021-.071.18.18 0 01.175-.136h12.635a.18.18 0 01.165.253l-7.679 17.452a1.948 1.948 0 001.783 2.732h5.643a.18.18 0 01.161.261l-8.08 16.213a1.948 1.948 0 001.743 2.816h2.248a.278.278 0 01.216.452l-2.94 3.653a.884.884 0 001.376 1.109l2.941-3.651a2.045 2.045 0 00-1.593-3.328h-2.248a.18.18 0 01-.161-.261l8.08-16.213a1.948 1.948 0 00-1.743-2.816z"/></svg>