<svg xmlns="http://www.w3.org/2000/svg" xmlns:xlink="http://www.w3.org/1999/xlink" width="114.663" height="106.278"
  viewBox="0 0 114.663 106.278">
  <defs>
    <style>
      .cost-a {
        fill: url(#cost-a);
      }
    </style>
    <linearGradient id="cost-a" x1="1.034" y1="-0.147" x2="0" y2="1.132" gradientUnits="objectBoundingBox">
      <stop offset="0" stop-color="#88ec00" />
      <stop offset="1" stop-color="#e79c07" />
    </linearGradient>
  </defs>
  <g transform="matrix(0.616, -0.788, 0.788, 0.616, -0.125, 58.792)">
    <path class="cost-a"
      d="M109.452,486.108a4.129,4.129,0,0,1-3.939,3.25,1.343,1.343,0,0,0-.514,2.554,4.126,4.126,0,0,1,2.38,4.519l-.348,1.741a4.346,4.346,0,0,1-5.216,3.184c-.622-.149-1.26-.265-1.891-.39-.929-.182-1.857-.373-2.786-.556-1.227-.249-2.454-.489-3.682-.738-1.459-.29-2.927-.589-4.386-.879-1.633-.332-3.267-.655-4.9-.987-1.741-.348-3.491-.7-5.232-1.053-1.791-.357-3.582-.721-5.365-1.078l-5.315-1.07-5.075-1.02c-1.551-.307-3.093-.622-4.643-.929-1.343-.265-2.687-.539-4.022-.8-1.07-.216-2.139-.431-3.217-.647l-2.214-.448c-.34-.066-.68-.141-1.02-.207-.017,0-.033-.008-.05-.008a4.2,4.2,0,0,1-.3,2.645,4.249,4.249,0,0,1-4.66,2.388,1.251,1.251,0,0,0-1.4.614l-.746,1.617a1.253,1.253,0,0,0,.44,1.468c.083.066,59.851,27.62,59.95,27.645a1.251,1.251,0,0,0,1.4-.614l.746-1.617a1.253,1.253,0,0,0-.439-1.468,4.243,4.243,0,0,1,3.458-7.479,1.251,1.251,0,0,0,1.4-.614l.746-1.617a1.253,1.253,0,0,0-.439-1.468,4.243,4.243,0,0,1,3.458-7.479,1.251,1.251,0,0,0,1.4-.614l.746-1.617a1.253,1.253,0,0,0-.44-1.468,4.243,4.243,0,0,1,3.458-7.479,1.251,1.251,0,0,0,1.4-.614l.821-1.791a1.021,1.021,0,0,0-.5-1.36l-8.93-4.121Z"
      transform="translate(-37.244 -445.246)" />
    <path class="cost-a"
      d="M.989,40.289c.1.05,64.619,12.993,64.727,12.993a1.253,1.253,0,0,0,1.219-.92l.348-1.741a1.258,1.258,0,0,0-.771-1.327,4.247,4.247,0,0,1,1.625-8.085,1.253,1.253,0,0,0,1.219-.92l.257-1.277.091-.473a1.258,1.258,0,0,0-.771-1.327,4.247,4.247,0,0,1,1.625-8.085,1.253,1.253,0,0,0,1.219-.92l.348-1.741a1.258,1.258,0,0,0-.771-1.327,4.247,4.247,0,0,1,1.625-8.085,1.253,1.253,0,0,0,1.219-.92l.39-1.932a1.022,1.022,0,0,0-.8-1.2S8.949,0,8.883,0a1.028,1.028,0,0,0-1,.821L7.49,2.752a1.258,1.258,0,0,0,.771,1.327,4.247,4.247,0,0,1-1.625,8.085,1.253,1.253,0,0,0-1.219.92l-.348,1.741a1.258,1.258,0,0,0,.771,1.327,4.247,4.247,0,0,1-1.625,8.085A1.253,1.253,0,0,0,3,25.157L2.648,26.9a1.258,1.258,0,0,0,.771,1.327,4.247,4.247,0,0,1-1.625,8.085,1.253,1.253,0,0,0-1.219.92L.226,38.971A1.231,1.231,0,0,0,.989,40.289ZM56.255,19.037a2.072,2.072,0,1,1,4.063.813L57.581,33.465,55.9,41.857a2.073,2.073,0,0,1-2.032,1.667,2.251,2.251,0,0,1-.406-.041,2.075,2.075,0,0,1-1.625-2.438l1.882-9.362Zm-37.38-7.5a2.072,2.072,0,0,1,4.063.813l-.945,4.7-1.07,5.332-.862,4.3-1.534,7.678A2.073,2.073,0,0,1,16.5,36.019a2.25,2.25,0,0,1-.406-.041.986.986,0,0,1-.166-.041,2.067,2.067,0,0,1-1.451-2.4l.307-1.551.8-4.013Z"
      transform="translate(0)" />
  </g>
</svg>
