<svg xmlns="http://www.w3.org/2000/svg" width="236.487" height="51.497"><defs><linearGradient id="logo-a" x1=".5" x2=".5" y2="1" gradientUnits="objectBoundingBox"><stop offset="0" stop-color="#88ec00"/><stop offset="1" stop-color="#8cc63f"/></linearGradient><linearGradient id="logo-e" x1=".5" x2=".5" y2="1" gradientUnits="objectBoundingBox"><stop offset="0" stop-color="#6fb213"/><stop offset="1" stop-color="#6fa823"/></linearGradient><linearGradient id="logo-v" x1=".5" x2=".5" y2="1" gradientUnits="objectBoundingBox"><stop offset="0" stop-color="#88ec00"/><stop offset="1" stop-color="#61a506"/></linearGradient><style>.logo-b,.logo-c{fill:url(#logo-a);stroke:transparent}.logo-c{fill:url(#logo-e)}</style></defs><path d="M124.312 24.979h5.8v-11.49h.08l7.267 11.49h6.4l-8.567-12.437 8.129-11.252h-6.4l-6.829 10.581h-.076V1.29h-5.804zm1.461-1.106V2.4h2.882v21.473zm19.069 1.106h6.238l1.145-2.448h9.357l1.185 2.448h6.238L157.398.5h-1.027zm9.2-6.593l2.764-6h.079l2.724 6zm7.146 0h3.2l2.604 5.487h-3.277zm-14.372 5.487l2.606-5.488h3.2l-2.568 5.488zm21.163-3.751h11.331v4.857h5.682v-4.857h3.672v-4.856h-3.672V1.29h-5.8l-11.213 18.161zm12.713-4.856V8.949l2.921-4.149v10.463zm-4.382 0l3-5.054v5.054zm4.382 8.607v-3.751h2.922v3.751zm11.054 1.106h5.8v-11.49h.079l7.267 11.49h6.4l-8.57-12.437 8.134-11.252h-6.4l-6.83 10.581h-.079V1.29h-5.8zm1.461-1.105V2.4h2.885v21.473zm19.07 1.105h6.238l1.145-2.448h9.357l1.185 2.448h6.238L224.832.5h-1.027zm9.2-6.593l2.764-6h.079l2.724 6zm7.146 0h3.2l2.606 5.488h-3.277zm-14.372 5.487l2.606-5.488h3.2l-2.565 5.488zm-162.98 1.106h5.764v-8.528h4.146a7.418 7.418 0 007.7-7.58 7.39 7.39 0 00-7.7-7.58h-9.91zm1.461-1.106V2.4h2.842v21.473zm4.3-12.4V6.222h3.593a2.3 2.3 0 012.329 2.487 2.519 2.519 0 01-2.329 2.764zm15.559 13.506h5.8v-8.844l6.045 8.844h7.265l-6.4-8.8c3.514-.869 5.606-3.2 5.606-7.344 0-4.461-3.316-7.541-8.41-7.541h-9.906zm1.46-1.106V2.4h2.882v21.473zm4.343-12.318v-5.33h4.5a2.5 2.5 0 012.329 2.606c0 1.382-.869 2.724-2.171 2.724zm15.6 1.579a12.358 12.358 0 0012.749 12.634 12.382 12.382 0 0012.752-12.634A12.382 12.382 0 00106.743.5 12.358 12.358 0 0093.99 13.134zm5.883 0c0-3.988 2.645-7.146 6.87-7.146 4.185 0 6.87 3.159 6.87 7.146s-2.689 7.146-6.874 7.146c-4.225 0-6.87-3.158-6.87-7.146zm-4.189 2.487h3.04a7.975 7.975 0 008.015 5.879 7.933 7.933 0 008.015-5.883h3.04a11.043 11.043 0 01-11.055 8.967 10.946 10.946 0 01-11.055-8.963z" fill="url(#logo-a)"/><path class="logo-b" d="M20.322 11.874a4.451 4.451 0 11-4.451 4.451 4.451 4.451 0 014.451-4.451z"/><path class="logo-b" d="M17.516 21.84c7.1 3.249 9.16 4.515 9.74 7.87s-1.1 5.677-2.838 5.354.9-4.451-1.161-5.419-5.112 2.032-3.87 5.677c2 5.87 7.16 1.226 8.257 2.58s-.645 5.483-6.58 4.515-5.354-6-10.257-5.16-5.676 4-6.322 8.192-3.483 2.322-3.935-2.58 1.484-7.676 5.677-10.257 4.257-7.741 3.935-9.418-3.669-7.706-2.774-11.289c.774-3.1 3.225-2.516 3.483-.064s1.291 7.548 6.645 9.999z"/><path class="logo-c" d="M21.943 9.516a2.964 2.964 0 01-2.768.614c-1.934-.287-3.812-.87-5.732-1.235a11.935 11.935 0 00-5.8.082 8.988 8.988 0 014.445-3.063 15.239 15.239 0 015.418-.629c1.575.069 3.308.387 4.278 1.629a2.148 2.148 0 01.159 2.602zm15.928 26.149a2.965 2.965 0 00-2.709.836c-1.539 1.206-2.881 2.642-4.369 3.911a11.936 11.936 0 01-5.084 2.8 8.987 8.987 0 005.378.462 15.241 15.241 0 005.019-2.135c1.334-.839 2.683-1.973 2.912-3.533a2.148 2.148 0 00-1.147-2.341z"/><path class="logo-c" d="M31.065 30.273a2.33 2.33 0 00-1.1 1.938c-.23 1.519-.224 3.064-.392 4.592a9.377 9.377 0 01-1.4 4.342 7.063 7.063 0 003.325-2.634 11.979 11.979 0 001.721-3.926 4.379 4.379 0 00-.238-3.59 1.688 1.688 0 00-1.916-.722zM13.46 43.01a2.079 2.079 0 00-1.924.5c-1.116.8-2.1 1.76-3.185 2.6a8.372 8.372 0 01-3.651 1.8 6.3 6.3 0 003.753.494 10.686 10.686 0 003.584-1.336 3.907 3.907 0 002.152-2.383 1.507 1.507 0 00-.729-1.675zm-5.727-2.006c-.43.118-.644.594-.766 1.023-.241.848-.351 1.727-.557 2.584a5.379 5.379 0 01-1.112 2.369 4.051 4.051 0 002.083-1.257 6.868 6.868 0 001.265-2.108 2.511 2.511 0 00.125-2.06.968.968 0 00-1.038-.551zm6.669-39.329a2 2 0 01-1.022 1.613c-1.056.787-2.227 1.406-3.314 2.15a8.039 8.039 0 00-2.719 2.81 6.054 6.054 0 01.65-3.578 10.265 10.265 0 012.274-2.886A3.754 3.754 0 0113.082.515a1.447 1.447 0 011.32 1.16z"/><path class="logo-c" d="M.837 44.611c.864 3.542 3.088 4.489 3.649.838.645-4.193 1.419-7.354 6.322-8.192C3.422 38.482.575 41.709.837 44.611zm26.807-6.709a.808.808 0 00-.661-.261h-.033c-2.535.149-6.432 5.58-9.929 2.962a7.971 7.971 0 004.044 1.814c5.933.968 7.675-3.16 6.579-4.515zm-4.049-8.037c1.41 1.255-.808 4.9.824 5.2a1.884 1.884 0 001.471-.368c1.368-1.377-.523-3.618-2.295-4.832zM7.389 11.907c-.568 2.273.571 5.53 1.563 8.037-1.109-3.149 2.223-6.626 1.548-9.307-.778-1.332-2.488-1.223-3.111 1.27zm17.384 4.418a4.43 4.43 0 00-.46-1.97c1.524 4.27-6.507 6.421-8.153 3.548a4.451 4.451 0 008.613-1.578z"/><path class="logo-b" d="M31.087 43.675a15.238 15.238 0 005.019-2.135c1.335-.839 2.683-1.973 2.912-3.533a2.364 2.364 0 00-.627-2.013c.7 1.866-.845 3.6-5.3 5.584-4.666 2.079-7.386 1.634-7.386 1.634a8.987 8.987 0 005.382.463zm.416-5.164a11.979 11.979 0 001.721-3.926 4.379 4.379 0 00-.238-3.59 1.935 1.935 0 00-1.187-.79c2.864 5.463-3.621 10.94-3.621 10.94a7.062 7.062 0 003.325-2.634zM8.452 48.407a10.687 10.687 0 003.584-1.336 3.908 3.908 0 002.152-2.383 1.6 1.6 0 00-.513-1.552c.154.669.3 1.811-2.915 3.472-3.644 1.883-6.061 1.3-6.061 1.3a6.3 6.3 0 003.753.499zm-1.071-2.684a6.868 6.868 0 001.265-2.108 2.511 2.511 0 00.125-2.06 1.089 1.089 0 00-.674-.549c.39.29.517.911-.356 2.974a6.491 6.491 0 01-2.444 3 4.051 4.051 0 002.084-1.257zM22.309 8.522a2.493 2.493 0 00-.529-1.608c-.971-1.242-2.7-1.56-4.278-1.629a15.239 15.239 0 00-5.418.629 8.988 8.988 0 00-4.445 3.063 14.356 14.356 0 016.768-2.361c4.141-.387 7.792.424 7.902 1.906zm-8.09-7.344a1.629 1.629 0 00-1.137-.663 3.754 3.754 0 00-2.811 1.269A10.265 10.265 0 007.997 4.67a6.054 6.054 0 00-.65 3.578A11.077 11.077 0 019.97 3.327c2.095-2.225 3.565-2.877 4.249-2.149z"/><path d="M26.982 37.641h-.033c-2.535.149-6.432 5.58-9.929 2.962a8.015 8.015 0 001.291.893 6.826 6.826 0 002.974.144 10.138 10.138 0 002.743-1.31 5.338 5.338 0 012.867-.914 2.511 2.511 0 01.931.239 1.9 1.9 0 00-.183-1.753.808.808 0 00-.661-.261zM3.431 42.832a10.643 10.643 0 017.376-5.575C3.422 38.482.574 41.709.836 44.611a7.362 7.362 0 00.79 2.03 4.242 4.242 0 001.123-1.747c.258-.677.425-1.386.682-2.062zm20.164-12.967a1.439 1.439 0 01.435.8 3.657 3.657 0 011.2 2.391 2.394 2.394 0 01-.242 1.347 1.555 1.555 0 01-.656.638c.028.008.055.017.086.023a1.884 1.884 0 001.471-.368c1.369-1.376-.522-3.617-2.294-4.831zM10.496 10.636a1.492 1.492 0 00-1.383-.841 4.159 4.159 0 01.446 3.106c-.237 1.2-.767 2.314-1.047 3.5a8.585 8.585 0 00-.223 1.784c.214.61.44 1.2.66 1.758-1.107-3.15 2.225-6.626 1.547-9.307zm13.817 3.719c1.524 4.27-6.507 6.421-8.153 3.548a4.463 4.463 0 001.521 2 6.029 6.029 0 004.137-.336 5.245 5.245 0 002.909-3.87 4.426 4.426 0 00-.414-1.342z" fill="url(#logo-v)" stroke="transparent"/><path class="logo-c" d="M24.032 13.866a4.451 4.451 0 00-8.161 2.459c0 .1 0 .2.011.3.238-2.425 5.161-5.508 8.15-2.759zm-7.011 9.264c6.455 1.69 9.92 4.323 10.352 7.87a7.759 7.759 0 00-.116-1.291c-.581-3.354-2.645-4.621-9.74-7.87a11.228 11.228 0 01-6.327-8.069s-.624 7.67 5.831 9.36zM.515 40.736c.738-3.089 1.952-4.511 5.3-6.64s6.445-5.354 4.349-10.9c.322 1.677.258 6.838-3.935 9.418C2.685 34.793.754 37.112.515 40.736zm23.07-2.395c-1.6.182-3.252-.24-4.2-3.019-1.019-2.993.854-5.549 2.7-5.832-4.667.091-4.473 4.791-3.7 6.505a4.527 4.527 0 005.2 2.346z"/><text transform="translate(154.487 47.497)" fill="#fff" font-size="14" font-family="Montserrat" font-weight="700"><tspan x="0" y="0">МАРАФОН</tspan></text></svg>