<svg xmlns="http://www.w3.org/2000/svg" width="1280" height="174.67"><path d="M504.904 169.211h40.119v-79.42h.546l50.215 79.42h44.213l-59.221-85.97 56.222-77.783h-44.214L545.569 78.6h-.546V5.458h-40.119zm10.1-7.642V13.1h19.921v148.469zm131.821 7.642h43.122l7.915-16.921h64.682l8.188 16.921h43.122L733.612 0h-7.1zm63.589-45.578l19.1-41.484h.546l18.832 41.484zm49.4 0h22.107l18.013 37.936h-22.65zm-99.343 37.936l18.013-37.936h22.1l-17.74 37.936zm146.286-25.928h78.327v33.569h39.3v-33.568h25.382v-33.57h-25.382V5.458h-40.12L806.755 131zm87.881-33.569V58.405l20.2-28.657v72.324zm-30.294 0l20.74-34.933v34.933zm30.294 59.5v-25.93h20.2v25.928zm76.418 7.642h40.119V89.791h.546l50.217 79.42h44.213l-59.224-85.97 56.222-77.783h-44.215L1011.718 78.6h-.546V5.458h-40.119zm10.1-7.642V13.1h19.923v148.469zm131.821 7.642h43.117l7.915-16.921h64.682l8.188 16.921H1280L1199.761 0h-7.1zm63.591-45.578l19.1-41.484h.546l18.832 41.484zm49.4 0h22.107l18.009 37.933h-22.655zm-99.343 37.936l18.013-37.936h22.107l-17.74 37.936zM0 169.211h39.846V110.26h28.657c30.294 0 53.22-21.834 53.22-52.4 0-27.565-19.65-52.4-53.22-52.4H0zm10.1-7.642V13.1h19.65v148.469zm29.748-85.7v-36.3H64.68c10.644 0 16.1 8.188 16.1 17.194 0 9.552-5.731 19.1-16.1 19.1zm107.532 93.342h40.119v-61.134l41.757 61.134h50.217l-44.215-60.861c24.29-6 38.755-22.107 38.755-50.763 0-30.84-22.925-52.128-58.132-52.128H147.38zm10.1-7.642V13.1h19.923v148.469zm30.021-85.151V39.574h31.109c9.006 0 16.1 8.461 16.1 18.013s-6 18.832-15.011 18.832zm107.8 10.917c0 48.853 36.3 87.335 88.154 87.335 51.582 0 88.154-38.482 88.154-87.335S435.036 0 383.454 0c-51.855 0-88.153 38.482-88.153 87.335zm40.665 0c0-27.565 18.286-49.4 47.488-49.4 28.93 0 47.488 21.834 47.488 49.4s-18.559 49.4-47.488 49.4c-29.202-.002-47.488-21.835-47.488-49.4zm-28.93 17.194h21.015c6.55 23.471 26.746 40.665 55.4 40.665s48.853-16.921 55.4-40.665h21.015c-7.369 35.753-37.117 61.953-76.418 61.953-39.568 0-69.316-25.928-76.412-61.953z" fill="#fff"/></svg>