<svg xmlns="http://www.w3.org/2000/svg" width="67.1" height="61.001"><defs><linearGradient id="activity-a" x1=".5" x2=".5" y2="1" gradientUnits="objectBoundingBox"><stop offset="0" stop-color="#88ec00"/><stop offset="1" stop-color="#e79c07"/></linearGradient><style>.activity-a{fill:url(#activity-a)}</style></defs><path class="activity-a" d="M37.077 14.528a1.355 1.355 0 00-1.746.15l-18.547 18.6a1.472 1.472 0 001.042 2.511h5.371l-6.612 13.969a1.359 1.359 0 002.189 1.542l12.795-12.797a.982.982 0 10-1.389-1.389L19.858 47.436l5.411-11.438a1.522 1.522 0 00-1.376-2.173H19.01l15.2-15.24-5.434 11.352a1.522 1.522 0 001.372 2.179h5.027l-1.94 1.942a.982.982 0 101.389 1.389l2.783-2.783a1.472 1.472 0 00-1.041-2.513h-5.514l6.666-13.927a1.355 1.355 0 00-.442-1.7z"/><path class="activity-a" d="M67.099 12.996a12.912 12.912 0 00-3.8-9.179.982.982 0 10-1.391 1.387 10.993 10.993 0 11-3.509-2.375.982.982 0 00.765-1.809 13 13 0 00-17.5 8.214 27.764 27.764 0 00-40.4 15.721.982.982 0 101.875.586 25.8 25.8 0 0138.088-14.28 13 13 0 0011.244 14.628 25.789 25.789 0 11-50.472 6.072c.034-.673.094-1.35.179-2.014a.982.982 0 10-1.949-.249 28.342 28.342 0 00-.192 2.165 27.751 27.751 0 1054.5-5.88 13.011 13.011 0 0012.562-12.987z"/><path class="activity-a" d="M54.105 5.761a.982.982 0 00-.982.982v2.1a4.268 4.268 0 105.136 5.136h3.51a.983.983 0 000-1.965h-3.506a4.281 4.281 0 00-3.171-3.171v-2.1a.982.982 0 00-.987-.982zm2.3 7.235a2.3 2.3 0 11-2.3-2.3 2.307 2.307 0 012.304 2.3z"/></svg>