<svg xmlns="http://www.w3.org/2000/svg" width="47.63" height="61.001"><defs><linearGradient id="exam-a" x1=".5" x2=".5" y2="1" gradientUnits="objectBoundingBox"><stop offset="0" stop-color="#88ec00"/><stop offset="1" stop-color="#e79c07"/></linearGradient><style>.exam-a{fill:url(#exam-a)}</style></defs><path class="exam-a" d="M42.917 14.326a.894.894 0 00-.894.894v40.113a.061.061 0 01-.061.061H10.445a.894.894 0 000 1.787h31.517a1.851 1.851 0 001.849-1.849V15.22a.894.894 0 00-.894-.894z"/><path class="exam-a" d="M45.782 3.82h-8.226l-3-3A2.785 2.785 0 0032.575 0H1.849A1.851 1.851 0 000 1.849v53.483a1.851 1.851 0 001.849 1.849h1.972v1.972A1.851 1.851 0 005.669 61h40.113a1.851 1.851 0 001.849-1.849V5.669a1.851 1.851 0 00-1.849-1.849zM33.304 2.1l8.41 8.41h-8.348a.061.061 0 01-.061-.061zm12.539 57.057a.061.061 0 01-.061.061H5.669a.061.061 0 01-.061-.061v-1.976h1.016a.894.894 0 100-1.787H1.849a.061.061 0 01-.061-.061V1.849a.061.061 0 01.061-.061h29.668v8.657a1.851 1.851 0 001.849 1.849h9.551a.894.894 0 00.894-.894v-.164a2.786 2.786 0 00-.823-1.983l-3.645-3.646h6.438a.061.061 0 01.061.061v53.484z"/><path class="exam-a" d="M17.761 10.208a.893.893 0 00-1.264 0l-5.054 5.056a.062.062 0 01-.087 0l-2.015-2.015h1.551a.894.894 0 100-1.787H8.534a1.834 1.834 0 00-.8.183l-.481-.481a.894.894 0 10-1.264 1.264l.7.7a1.778 1.778 0 00-.009.18v5.73a1.851 1.851 0 001.849 1.849h5.73a1.851 1.851 0 001.849-1.849v-5.92l1.648-1.648a.893.893 0 00.005-1.262zm-3.439 8.832a.061.061 0 01-.061.061h-5.73a.061.061 0 01-.061-.061v-4.133l1.62 1.619a1.851 1.851 0 002.614 0l1.62-1.62zm-.062 4.834H8.53a1.851 1.851 0 00-1.849 1.849v5.73a1.851 1.851 0 001.849 1.849h5.73a1.851 1.851 0 001.849-1.849v-5.73a1.851 1.851 0 00-1.849-1.849zm.061 7.579a.061.061 0 01-.061.061H8.53a.061.061 0 01-.061-.061v-5.73a.061.061 0 01.061-.061h5.73a.061.061 0 01.061.061zm-.061 4.839H8.53a1.851 1.851 0 00-1.849 1.849v5.73A1.851 1.851 0 008.53 45.72h5.73a1.851 1.851 0 001.849-1.849v-5.73a1.851 1.851 0 00-1.849-1.849zm.061 7.579a.061.061 0 01-.061.061H8.53a.062.062 0 01-.061-.061v-5.73a.061.061 0 01.061-.061h5.73a.061.061 0 01.061.061zm14.269-30.5h-8.6a.894.894 0 000 1.787h8.6a.894.894 0 100-1.787zm7.641 3.82H19.995a.894.894 0 000 1.787h16.236a.894.894 0 000-1.787zm-7.641 8.596h-8.6a.894.894 0 000 1.787h8.6a.894.894 0 100-1.787zm7.641 3.82H19.995a.894.894 0 000 1.787h16.236a.894.894 0 000-1.787zm-7.641 8.596h-8.6a.894.894 0 000 1.787h8.6a.894.894 0 100-1.787zm7.641 3.82H19.995a.894.894 0 000 1.787h16.236a.894.894 0 000-1.787z"/></svg>