<svg xmlns="http://www.w3.org/2000/svg" width="44.734" height="61.001"><defs><linearGradient id="files-a" x1=".5" x2=".5" y2="1" gradientUnits="objectBoundingBox"><stop offset="0" stop-color="#88ec00"/><stop offset="1" stop-color="#e79c07"/></linearGradient><style>.files-a{fill:url(#files-a)}</style></defs><path class="files-a" d="M44.725 11.184a1.017 1.017 0 00-.289-.719L34.269.3a1 1 0 00-.719-.289V0H3.05A3.05 3.05 0 000 3.05v54.9A3.05 3.05 0 003.05 61h38.634a3.05 3.05 0 003.05-3.05V11.184zM34.567 3.471l6.7 6.7h-5.683a1.017 1.017 0 01-1.017-1.021zm8.133 54.48a1.017 1.017 0 01-1.017 1.017H3.05a1.017 1.017 0 01-1.017-1.017V3.05A1.017 1.017 0 013.05 2.033h29.484V9.15a3.05 3.05 0 003.05 3.05H42.7z"/><path class="files-a" d="M10.167 27.45a3.05 3.05 0 103.05 3.05 3.05 3.05 0 00-3.05-3.05zm0 4.067a1.017 1.017 0 111.017-1.017 1.017 1.017 0 01-1.017 1.017zM18 30.001h20v2H18zm-7.833-12.717a3.05 3.05 0 103.05 3.05 3.05 3.05 0 00-3.05-3.05zm0 4.067a1.017 1.017 0 111.017-1.017 1.017 1.017 0 01-1.017 1.017zM18 19h20v2H18zm-7.833 18.617a3.05 3.05 0 103.05 3.05 3.05 3.05 0 00-3.05-3.05zm0 4.067a1.017 1.017 0 111.017-1.017 1.017 1.017 0 01-1.017 1.017zM18 40h20v2H18zm-7.833 7.784a3.05 3.05 0 103.05 3.05 3.05 3.05 0 00-3.05-3.05zm0 4.067a1.017 1.017 0 111.017-1.017 1.017 1.017 0 01-1.017 1.017zM18 50h20v2H18z"/></svg>