<svg xmlns="http://www.w3.org/2000/svg" width="61.001" height="61.001"><defs><linearGradient id="route-a" x1=".5" x2=".5" y2="1" gradientUnits="objectBoundingBox"><stop offset="0" stop-color="#88ec00"/><stop offset="1" stop-color="#e79c07"/></linearGradient><style>.route-a{fill:url(#route-a)}</style></defs><path class="route-a" d="M12.033 30.154a12.033 12.033 0 00-9.358 19.6l.01.012.916 1.174a1.192 1.192 0 001.879-1.466l-.892-1.143-.039-.051a9.65 9.65 0 1114.928.05 1.176 1.176 0 00-.083.114l-7.36 9.43-.537-.688a1.192 1.192 0 10-1.879 1.466l1.476 1.892a1.192 1.192 0 00.939.459 1.191 1.191 0 00.939-.458l8.369-10.721a.988.988 0 00.048-.065 12.034 12.034 0 00-9.356-19.6z"/><path class="route-a" d="M8.6 53.472l-.043-.049a1.192 1.192 0 00-1.878 1.467l.039.05a1.192 1.192 0 001.878-1.467zm3.433-18.022a6.91 6.91 0 106.91 6.91 6.918 6.918 0 00-6.91-6.91zm0 11.438a4.527 4.527 0 114.527-4.527 4.533 4.533 0 01-4.527 4.527zM60.405 6.763L48.968.16a1.191 1.191 0 00-1.792 1.032v20.373h-1.973a1.192 1.192 0 000 2.383h6.329a1.192 1.192 0 000-2.383h-1.973v-6.478l10.842-6.26a1.191 1.191 0 000-2.064zm-10.842 5.572v-9.08l7.863 4.54zm-11.636-1.32h-.3a1.192 1.192 0 100 2.383h.3a1.192 1.192 0 000-2.383zM25.141 28.97a8.632 8.632 0 01-.5-.168 1.191 1.191 0 00-.84 2.23c.212.08.43.154.647.219a1.192 1.192 0 00.69-2.281zm2.198-16.84a1.191 1.191 0 00-1.346-1.013c-.224.032-.45.071-.672.118a1.191 1.191 0 10.488 2.332c.171-.036.345-.066.517-.091a1.191 1.191 0 001.013-1.346zm-6.382 13.824c-.1-.142-.2-.29-.29-.438a1.191 1.191 0 00-2.029 1.249c.119.193.245.384.377.569a1.192 1.192 0 101.943-1.38zm.75-11.819a1.191 1.191 0 00-1.685.027 9.907 9.907 0 00-.458.506 1.192 1.192 0 001.818 1.541c.112-.132.231-.263.353-.389a1.191 1.191 0 00-.028-1.685zm-3.223 5.035a1.193 1.193 0 00-1.313 1.056c-.024.225-.042.454-.051.679a1.192 1.192 0 001.14 1.241h.052a1.191 1.191 0 001.189-1.141c.007-.174.021-.35.04-.524a1.192 1.192 0 00-1.057-1.311zm13.709-8.155h-.6a1.192 1.192 0 100 2.383h.6a1.192 1.192 0 100-2.383zM30.5 29.308h-.3a1.192 1.192 0 100 2.383h.3a1.192 1.192 0 000-2.383zm-4.349 18.296h-.3a1.192 1.192 0 100 2.383h.3a1.192 1.192 0 100-2.383zm11.785 0h-.589a1.192 1.192 0 100 2.383h.589a1.192 1.192 0 100-2.383zm10.522-4.711a1.191 1.191 0 00-1.612.49c-.08.15-.166.3-.255.444a1.191 1.191 0 102.026 1.254c.116-.187.227-.381.331-.576a1.191 1.191 0 00-.49-1.612zm-16.414 4.711h-.588a1.192 1.192 0 100 2.383h.589a1.192 1.192 0 100-2.383zm18.073-8.889c-.02-.22-.047-.443-.081-.661a1.192 1.192 0 10-2.355.365c.026.168.047.339.062.508a1.191 1.191 0 001.185 1.085h.107a1.191 1.191 0 001.082-1.297zm-2.622-5.995a9.04 9.04 0 00-.461-.479 1.192 1.192 0 10-1.663 1.707c.122.119.242.243.356.37a1.192 1.192 0 001.768-1.6zm-5.697-3.221a11.227 11.227 0 00-.657-.106 1.191 1.191 0 00-.3 2.364c.169.022.339.049.506.081a1.191 1.191 0 10.454-2.339zm2.982 17.926a1.191 1.191 0 00-1.585-.572c-.153.072-.311.14-.47.2a1.191 1.191 0 10.87 2.218c.207-.081.413-.17.613-.264a1.192 1.192 0 00.572-1.582zm-9.099-18.117h-.3a1.192 1.192 0 000 2.383h.3a1.192 1.192 0 000-2.383z"/></svg>