<svg xmlns="http://www.w3.org/2000/svg" xmlns:xlink="http://www.w3.org/1999/xlink" width="58" height="58"
  viewBox="0 0 58 58">
  <defs>
    <style>
      .live-a {
        fill: url(#live-a);
      }
    </style>
    <linearGradient id="live-a" x1="0.5" x2="0.5" y2="1" gradientUnits="objectBoundingBox">
      <stop offset="0" stop-color="#88ec00" />
      <stop offset="1" stop-color="#e79c07" />
    </linearGradient>
  </defs>
  <path class="live-a" d="M247.383,212a1.133,1.133,0,1,0,.8.332A1.141,1.141,0,0,0,247.383,212Z"
    transform="translate(-218.354 -187.984)" />
  <path class="live-a"
    d="M165.669,57.861a1.132,1.132,0,0,0,1.443-.7,12.914,12.914,0,1,0-24.421-.077,1.133,1.133,0,1,0,2.144-.732,10.648,10.648,0,1,1,20.137.063A1.133,1.133,0,0,0,165.669,57.861Z"
    transform="translate(-125.914 -35.469)" />
  <path class="live-a"
    d="M103.39,23.837a1.133,1.133,0,0,0,.7-1.44,15.18,15.18,0,1,1,28.708,0,1.133,1.133,0,1,0,2.142.739,17.445,17.445,0,1,0-32.992,0,1.133,1.133,0,0,0,1.44.7Z"
    transform="translate(-89.559)" />
  <path class="live-a"
    d="M52.336,100.617H34.723a8.359,8.359,0,0,0,2.66-6.117V88.383a8.383,8.383,0,0,0-16.766,0V94.5a8.359,8.359,0,0,0,2.66,6.117H17.445a1.133,1.133,0,0,0,0,2.266H27.867v3.172H24.675a1.133,1.133,0,0,0,0,2.266h8.651a1.133,1.133,0,1,0,0-2.266H30.133v-3.172h22.2a3.4,3.4,0,0,1,3.4,3.4v16.992a3.4,3.4,0,0,1-3.4,3.4H5.664a3.4,3.4,0,0,1-3.4-3.4V106.281a3.4,3.4,0,0,1,3.4-3.4H7.25a1.133,1.133,0,1,0,0-2.266H5.664A5.67,5.67,0,0,0,0,106.281v16.992a5.67,5.67,0,0,0,5.664,5.664H52.336A5.67,5.67,0,0,0,58,123.273V106.281A5.67,5.67,0,0,0,52.336,100.617ZM29,82.266a6.124,6.124,0,0,1,6.117,6.117v2.165H22.883V88.383A6.124,6.124,0,0,1,29,82.266ZM22.883,94.5V92.813H35.117V94.5a6.117,6.117,0,0,1-12.234,0Z"
    transform="translate(0 -70.938)" />
  <path class="live-a"
    d="M109.984,358.365a1.133,1.133,0,0,0-1.133,1.133v9.055a1.133,1.133,0,0,0,.942,1.116,8.386,8.386,0,0,0,1.152.024c.485,0,1.189,0,2.219-.008a1.133,1.133,0,0,0-.006-2.266h-.006c-.7,0-1.447.007-2.034.007V359.5A1.133,1.133,0,0,0,109.984,358.365Z"
    transform="translate(-96.52 -317.769)" />
  <path class="live-a" d="M191.13,368.56V359.5a1.133,1.133,0,1,0-2.266,0v9.062a1.133,1.133,0,1,0,2.266,0Z"
    transform="translate(-167.469 -317.769)" />
  <path class="live-a"
    d="M354.665,361a1.133,1.133,0,1,0,0-2.266h-3.784a1.133,1.133,0,0,0-1.133,1.133v8.98a1.133,1.133,0,0,0,1.133,1.133h3.784a1.133,1.133,0,1,0,0-2.266h-2.651v-2.224h2.372a1.133,1.133,0,1,0,0-2.266h-2.372V361Z"
    transform="translate(-310.128 -318.093)" />
  <path class="live-a"
    d="M245.287,369.691h.009a1.341,1.341,0,0,0,1.26-.914l2.959-8.907a1.133,1.133,0,1,0-2.15-.714l-2.1,6.312-2.2-6.343a1.133,1.133,0,1,0-2.14.743l3.1,8.934A1.338,1.338,0,0,0,245.287,369.691Z"
    transform="translate(-213.577 -317.767)" />
  <path class="live-a" d="M100.133,264.266a1.133,1.133,0,1,0-.8-.332A1.141,1.141,0,0,0,100.133,264.266Z"
    transform="translate(-87.785 -232.32)" />
</svg>
