<svg xmlns="http://www.w3.org/2000/svg" xmlns:xlink="http://www.w3.org/1999/xlink" width="77.462" height="54.307"
  viewBox="0 0 77.462 54.307">
  <defs>
    <style>
      .mortarboard-a {
        fill: url(#mortarboard-a);
      }
    </style>
    <linearGradient id="mortarboard-a" x1="0.5" x2="0.5" y2="1" gradientUnits="objectBoundingBox">
      <stop offset="0" stop-color="#88ec00" />
      <stop offset="1" stop-color="#e79c07" />
    </linearGradient>
  </defs>
  <g transform="translate(0 -76.517)">
    <path class="mortarboard-a"
      d="M75.967,88.71,59.615,83.184a1.135,1.135,0,1,0-.727,2.15l16.2,5.474-7.624,3.717a3.445,3.445,0,0,0-1.057-.478L43.537,88.07a4.893,4.893,0,0,0-9.7.916v.025a2.908,2.908,0,0,0,2.919,2.869h3.948a2.89,2.89,0,0,0,2.568-1.533L64.6,95.92l-23.792,11.6a4.711,4.711,0,0,1-4.149,0L2.378,90.808,37.215,79.034a4.759,4.759,0,0,1,3.031,0l13.6,4.6a1.135,1.135,0,0,0,.727-2.15l-13.6-4.6a7.045,7.045,0,0,0-4.485,0L1.495,88.71a2.2,2.2,0,0,0-.26,4.065l17.959,8.756a107.344,107.344,0,0,1-4.136,14.243,4.487,4.487,0,0,0,1.439,5.081A57.031,57.031,0,0,0,34.079,130.1a15.251,15.251,0,0,0,9.3,0,57.042,57.042,0,0,0,17.583-9.243,4.486,4.486,0,0,0,1.439-5.081,107.4,107.4,0,0,1-4.136-14.242l8.448-4.119v17.079a2.8,2.8,0,0,0-2.586,2.79v3.307a1.674,1.674,0,0,0,.551,1.24l-.422,6.373a2.162,2.162,0,0,0,2.156,2.3h2.871a2.162,2.162,0,0,0,2.156-2.3l-.421-6.373a1.674,1.674,0,0,0,.551-1.24v-3.307a2.8,2.8,0,0,0-2.586-2.79v-17.1a3.44,3.44,0,0,0-.153-1.007l7.4-3.606a2.2,2.2,0,0,0-.26-4.065Zm-35.262.9H36.757a.641.641,0,0,1-.65-.606v-.019a2.6,2.6,0,0,1,.826-1.911,2.627,2.627,0,0,1,4.418,1.781A.645.645,0,0,1,40.705,89.611Zm18.289,23.246c-6.131,4.8-14.832,8.231-17.829,8.8a1.135,1.135,0,0,0,.425,2.229c3.135-.6,11.724-3.936,18.171-8.761.159.452.342.967.51,1.425a2.223,2.223,0,0,1-.709,2.518,54.947,54.947,0,0,1-16.877,8.867,12.984,12.984,0,0,1-7.91,0A54.95,54.95,0,0,1,17.9,119.071a2.222,2.222,0,0,1-.709-2.518l.02-.055c.165-.452.348-.965.49-1.371,6.3,4.71,14.861,8.13,18.17,8.762a1.135,1.135,0,0,0,.425-2.229c-2.829-.539-11.56-3.9-17.828-8.8a106.639,106.639,0,0,0,2.829-10.3l14.366,7a6.96,6.96,0,0,0,6.138,0l14.365-7a106.6,106.6,0,0,0,2.829,10.3Zm7.537,15.379.395-5.967h1.849l.395,5.967Zm2.77-10.954V120H66.4v-2.717a.538.538,0,0,1,.531-.531h1.839A.539.539,0,0,1,69.3,117.281Z"
      transform="translate(0)" />
  </g>
</svg>
