<svg xmlns="http://www.w3.org/2000/svg" xmlns:xlink="http://www.w3.org/1999/xlink" width="58.119" height="58.119"
  viewBox="0 0 58.119 58.119">
  <defs>
    <style>
      .motivation-a {
        fill: url(#motivation-a);
      }
    </style>
    <linearGradient id="motivation-a" x1="0.5" x2="0.5" y2="1" gradientUnits="objectBoundingBox">
      <stop offset="0" stop-color="#88ec00" />
      <stop offset="1" stop-color="#e79c07" />
    </linearGradient>
  </defs>
  <path class="motivation-a"
    d="M247.135,5.676a1.135,1.135,0,0,0,1.135-1.135V1.135a1.135,1.135,0,0,0-2.27,0V4.541A1.135,1.135,0,0,0,247.135,5.676Z"
    transform="translate(-218.075)" />
  <path class="motivation-a" d="M457.135,248.27h4.087a1.135,1.135,0,0,0,0-2.27h-4.087a1.135,1.135,0,0,0,0,2.27Z"
    transform="translate(-404.237 -218.075)" />
  <path class="motivation-a" d="M1.135,248.27H5.222a1.135,1.135,0,0,0,0-2.27H1.135a1.135,1.135,0,0,0,0,2.27Z"
    transform="translate(0 -218.075)" />
  <path class="motivation-a"
    d="M396.428,74.636l2.409-2.409a1.135,1.135,0,0,0-1.605-1.605l-2.409,2.409a1.135,1.135,0,1,0,1.605,1.605Z"
    transform="translate(-349.71 -62.31)" />
  <path class="motivation-a" d="M79.03,74.636a1.135,1.135,0,1,0,1.605-1.605l-2.409-2.409a1.135,1.135,0,0,0-1.605,1.605Z"
    transform="translate(-67.629 -62.31)" />
  <circle class="motivation-a" cx="1" cy="1" r="1" transform="translate(28 56)" />
  <path class="motivation-a"
    d="M111,107.141v8.514c0,6.222,5.007,9.8,6.811,10.88v10.234a1.135,1.135,0,0,0,1.135,1.135h3.405a1.135,1.135,0,0,0,0-2.27h-2.27v-9.762a1.139,1.139,0,0,0-.625-1.014c-.062-.031-6.185-3.194-6.185-9.2v-8.514a2.275,2.275,0,0,1,2.27-2.271h12.373a5.685,5.685,0,0,1-5.562,4.542h-3.405a1.135,1.135,0,1,0,0,2.27,9.091,9.091,0,0,1,9.081,9.081,1.135,1.135,0,1,0,2.27,0,5.682,5.682,0,0,1,5.676-5.676,1.135,1.135,0,0,0,0-2.27,7.944,7.944,0,0,0-6.584,3.5,11.423,11.423,0,0,0-4.325-5.113,7.991,7.991,0,0,0,4.477-4.089,4.518,4.518,0,0,0,3.027,1.155c.291,0,.588,0,.862,0a7.92,7.92,0,0,0,1.527-.107,4.536,4.536,0,0,0,6.692,2.9v4.584c0,6.008-6.124,9.171-6.183,9.2a1.135,1.135,0,0,0-.628,1.015v9.762h-2.27a1.135,1.135,0,1,0,0,2.27h3.405a1.135,1.135,0,0,0,1.135-1.135V126.534c1.8-1.085,6.811-4.658,6.811-10.88v-14.3a4.537,4.537,0,0,0-6.84-3.913,4.537,4.537,0,0,0-6.811-3.405,4.54,4.54,0,0,0-9.023,0,4.537,4.537,0,0,0-6.84,3.913v4.8A4.549,4.549,0,0,0,111,107.141Zm28.379-8.06a2.273,2.273,0,0,1,2.27,2.27v5.789a2.27,2.27,0,1,1-4.541,0v-5.789A2.273,2.273,0,0,1,139.379,99.081Zm-6.811-3.405a2.273,2.273,0,0,1,2.27,2.27v7.492a.792.792,0,0,1-.065.413,4.762,4.762,0,0,1-1.745.157l-.46,0a2.273,2.273,0,0,1-2.27-2.27V97.946A2.273,2.273,0,0,1,132.568,95.676Zm-9.081-1.135a2.27,2.27,0,1,1,4.541,0v8.06h-4.541Zm-4.541,1.135a2.273,2.273,0,0,1,2.27,2.27V102.6h-4.541V97.946A2.273,2.273,0,0,1,118.946,95.676Z"
    transform="translate(-98.4 -79.784)" />
</svg>
