<svg xmlns="http://www.w3.org/2000/svg" xmlns:xlink="http://www.w3.org/1999/xlink" width="57.798" height="58.001"
  viewBox="0 0 57.798 58.001">
  <defs>
    <style>
      .support-a {
        fill: url(#support-a);
      }
    </style>
    <linearGradient id="support-a" x1="0.5" x2="0.5" y2="1" gradientUnits="objectBoundingBox">
      <stop offset="0" stop-color="#88ec00" />
      <stop offset="1" stop-color="#e79c07" />
    </linearGradient>
  </defs>
  <g transform="translate(-0.894)">
    <path class="support-a"
      d="M246.177,7.37a1.141,1.141,0,0,0,1.141-1.141V1.141a1.141,1.141,0,1,0-2.282,0V6.229A1.141,1.141,0,0,0,246.177,7.37Z"
      transform="translate(-216.485)" />
    <path class="support-a"
      d="M57.579,112.041l-2.015-2.01a3.82,3.82,0,0,0-4.521-.645l-3.8-3.793.185-.185a3.96,3.96,0,0,0,0-5.591,3.916,3.916,0,0,0-1.986-1.074,3.984,3.984,0,0,0,.157-1.11,3.951,3.951,0,0,0-3.143-3.87,3.984,3.984,0,0,0,.157-1.11,3.947,3.947,0,0,0-3.142-3.868,3.948,3.948,0,0,0-4.22-5.039l-7.526-1.425c-1.148-.218-2.581-.362-3.486.464a2.061,2.061,0,0,0-.173.179,3.967,3.967,0,0,0-4.163.915,3.925,3.925,0,0,0-1.156,2.8,3.989,3.989,0,0,0,.157,1.11,3.951,3.951,0,0,0-3.142,3.865,3.978,3.978,0,0,0,.157,1.113,3.956,3.956,0,0,0-2.452,6.1,3.954,3.954,0,0,0-1.519,6.54l.184.184-3.8,3.791a3.814,3.814,0,0,0-4.316.748l-2.017,2.011a3.811,3.811,0,0,0,0,5.382l2.517,2.514a1.141,1.141,0,0,0,1.612-1.614l-2.517-2.514a1.53,1.53,0,0,1,0-2.153l2.017-2.011A1.527,1.527,0,0,1,7.5,111.52a1.151,1.151,0,0,0,.144.176,1.136,1.136,0,0,0,.328.228l11.565,11.548a1.124,1.124,0,0,0,.55.556,1.527,1.527,0,0,1-.063,2.083L18,128.123a1.533,1.533,0,0,1-2.157,0l-2.517-2.517a1.141,1.141,0,1,0-1.613,1.613l2.519,2.519a3.82,3.82,0,0,0,5.38,0l2.016-2.014a3.815,3.815,0,0,0,.534-4.712l4.275-4.27.014-.014c.489-.506,1.853-.411,3.171-.32a16.409,16.409,0,0,0,3,.02l4.681,4.676a3.813,3.813,0,0,0,.647,4.517l2.016,2.014a3.815,3.815,0,0,0,5.381,0L57.58,117.423a3.811,3.811,0,0,0,0-5.382ZM27.3,84.564l4.949.937L29.29,88.462a7.192,7.192,0,0,1-1.775-1.29,5.249,5.249,0,0,1-1.679-2.593h0a1,1,0,0,1,0-.112,3.866,3.866,0,0,1,1.473.1Zm-5.784.93a1.683,1.683,0,0,1,2.129-.2,8.16,8.16,0,0,0,2.289,3.528,8.449,8.449,0,0,0,3.287,2.036A1.675,1.675,0,0,1,26.665,93h0l-5.145-5.136a1.68,1.68,0,0,1,0-2.365Zm-2.981,4.978a1.683,1.683,0,0,1,2.371,0l4.143,4.135a1.677,1.677,0,0,1-2.373,2.369h0l-3.143-3.142-.015-.014-.983-.983a1.674,1.674,0,0,1,0-2.366ZM15.551,95.45a1.688,1.688,0,0,1,2.363-.008l3.153,3.151a1.675,1.675,0,0,1-2.373,2.364l-1.143-1.142h0l-2-2a1.678,1.678,0,0,1,0-2.368Zm-1.987,5.98a1.686,1.686,0,0,1,2.374,0l1.144,1.143a1.675,1.675,0,0,1-2.374,2.363l-.143-.143-.005-.006-.007-.006-.989-.985a1.675,1.675,0,0,1,0-2.366ZM36.814,114.4a1.141,1.141,0,0,0-1.613,0l-1.015,1.014c-.964.964-2.712.843-4.4.726-1.835-.128-3.733-.259-4.961,1l-4.2,4.2L10.111,110.84l3.719-3.712a3.956,3.956,0,0,0,6.022-3.374c0-.01,0-.02,0-.029h.03a3.946,3.946,0,0,0,3.955-3.95c0-.01,0-.02,0-.029h.03a3.942,3.942,0,0,0,3.955-3.981h.031a3.958,3.958,0,0,0,3.377-6.015l3.259-3.258a1.674,1.674,0,0,1,.856-.456c.034,0,.068-.009.1-.016a1.672,1.672,0,0,1,1.42,2.838l-.993.989-.01.01L34.719,91a1.141,1.141,0,0,0,1.612,1.614l1-1h0l.151-.15a1.68,1.68,0,0,1,2.368.006,1.674,1.674,0,0,1,0,2.365l-1,1h0L37.7,95.976a1.141,1.141,0,1,0,1.61,1.617l1.148-1.144a1.674,1.674,0,0,1,2.37,2.366l-1.99,1.991a1.141,1.141,0,1,0,1.614,1.613l.975-.976.017-.016a1.674,1.674,0,0,1,2.37,2.366l-.992.991h0l-1.574,1.572a1.141,1.141,0,0,0,1.612,1.615l.77-.769,3.69,3.686L38.814,121.386l-3.765-3.76a4.486,4.486,0,0,0,.749-.6l1.014-1.013a1.14,1.14,0,0,0,0-1.613Zm19.154,1.413L43.74,128.022a1.533,1.533,0,0,1-2.156,0l-2.016-2.014a1.526,1.526,0,0,1,0-2.15l12.228-12.213a1.533,1.533,0,0,1,2.157,0l2.015,2.01a1.529,1.529,0,0,1,0,2.153Z"
      transform="translate(0 -72.847)" />
    <path class="support-a" d="M86.215,8.842a1.141,1.141,0,0,0,1.612-1.615L83.67,3.078a1.141,1.141,0,1,0-1.612,1.615Z"
      transform="translate(-71.673 -2.434)" />
    <path class="support-a"
      d="M372.792,9.176a1.138,1.138,0,0,0,.806-.334l4.154-4.149a1.141,1.141,0,1,0-1.612-1.614l-4.154,4.149a1.141,1.141,0,0,0,.806,1.948Z"
      transform="translate(-328.757 -2.434)" />
    <path class="support-a" d="M60.257,430.534a1.141,1.141,0,0,0,.014,1.613l0,0a1.141,1.141,0,1,0-.017-1.617Z"
      transform="translate(-52.348 -381.46)" />
    <path class="support-a" d="M333.653,334.4a1.141,1.141,0,1,0-.513-2.16l-.006,0a1.14,1.14,0,0,0,.519,2.157Z"
      transform="translate(-294.049 -294.495)" />
  </g>
</svg>
