<svg xmlns="http://www.w3.org/2000/svg" xmlns:xlink="http://www.w3.org/1999/xlink" width="30.001" height="30"
  viewBox="0 0 30.001 30">
  <defs>
    <style>
      .quote-a {
        fill: url(#quote-a);
      }
    </style>
    <linearGradient id="quote-a" x1="0.5" x2="0.5" y2="1" gradientUnits="objectBoundingBox">
      <stop offset="0" stop-color="#88ec00" />
      <stop offset="1" stop-color="#e79c07" />
    </linearGradient>
  </defs>
  <path class="quote-a"
    d="M25.05,22.5H22.5L15,30V22.5H4.952a4.718,4.718,0,0,1-3.311-1.67A4.868,4.868,0,0,1,0,17.461V5.039A4.868,4.868,0,0,1,1.642,1.67,4.718,4.718,0,0,1,4.952,0h20.1a4.718,4.718,0,0,1,3.311,1.67A4.868,4.868,0,0,1,30,5.039V17.461a4.868,4.868,0,0,1-1.641,3.369A4.718,4.718,0,0,1,25.05,22.5ZM13.126,11.25a1.852,1.852,0,0,0-1.875-1.875H9.376V7.5h.938a.932.932,0,0,0,.659-1.6.9.9,0,0,0-.659-.279H7.5A1.9,1.9,0,0,0,5.626,7.5V15A1.9,1.9,0,0,0,7.5,16.873h3.75A1.9,1.9,0,0,0,13.125,15V11.25Zm11.25,0a1.788,1.788,0,0,0-.556-1.333A1.825,1.825,0,0,0,22.5,9.375H20.627V7.5h.938a.932.932,0,0,0,.659-1.6.9.9,0,0,0-.659-.279H18.752a1.788,1.788,0,0,0-1.333.556A1.825,1.825,0,0,0,16.877,7.5V15a1.825,1.825,0,0,0,.542,1.318,1.788,1.788,0,0,0,1.333.556H22.5a1.825,1.825,0,0,0,1.318-.542A1.788,1.788,0,0,0,24.376,15V11.25Z"
    transform="translate(-0.001)" />
</svg>
