<svg xmlns="http://www.w3.org/2000/svg" width="30.001" height="30"><defs><linearGradient id="quote-a" x1=".5" x2=".5" y2="1" gradientUnits="objectBoundingBox"><stop offset="0" stop-color="#88ec00"/><stop offset="1" stop-color="#e79c07"/></linearGradient></defs><path d="M25.05 22.5H22.5L15 30v-7.5H4.952a4.718 4.718 0 01-3.311-1.67A4.868 4.868 0 010 17.461V5.039A4.868 4.868 0 011.642 1.67 4.718 4.718 0 014.952 0h20.1a4.718 4.718 0 013.311 1.67A4.868 4.868 0 0130 5.039v12.422a4.868 4.868 0 01-1.641 3.369 4.718 4.718 0 01-3.309 1.67zM13.126 11.25a1.852 1.852 0 00-1.875-1.875H9.376V7.5h.938a.932.932 0 00.659-1.6.9.9 0 00-.659-.279H7.5A1.9 1.9 0 005.626 7.5V15A1.9 1.9 0 007.5 16.873h3.75A1.9 1.9 0 0013.125 15v-3.75zm11.25 0a1.788 1.788 0 00-.556-1.333 1.825 1.825 0 00-1.32-.542h-1.873V7.5h.938a.932.932 0 00.659-1.6.9.9 0 00-.659-.279h-2.813a1.788 1.788 0 00-1.333.556 1.825 1.825 0 00-.542 1.323V15a1.825 1.825 0 00.542 1.318 1.788 1.788 0 001.333.556H22.5a1.825 1.825 0 001.318-.542A1.788 1.788 0 0024.376 15v-3.75z" transform="translate(-.001)" fill="url(#quote-a)"/></svg>