<svg xmlns="http://www.w3.org/2000/svg" width="114.663" height="106.278"><defs><linearGradient id="cost-a" x1="1.034" y1="-.147" x2="0" y2="1.132" gradientUnits="objectBoundingBox"><stop offset="0" stop-color="#88ec00"/><stop offset="1" stop-color="#e79c07"/></linearGradient><style>.cost-a{fill:url(#cost-a)}</style></defs><path class="cost-a" d="M76.554 27.063a4.13 4.13 0 01.135 5.106 1.343 1.343 0 001.696 1.978 4.127 4.127 0 015.027.909l1.157 1.346a4.347 4.347 0 01-.704 6.072c-.5.398-.985.83-1.472 1.25-.715.62-1.438 1.233-2.154 1.853-.952.813-1.897 1.632-2.85 2.446-1.127.971-2.267 1.944-3.394 2.915-1.268 1.082-2.529 2.171-3.796 3.253-1.347 1.158-2.702 2.32-4.053 3.474-1.385 1.192-2.775 2.379-4.154 3.564l-4.117 3.53-3.93 3.37c-1.198 1.033-2.396 2.054-3.593 3.086-1.036.895-2.08 1.786-3.108 2.677l-2.491 2.136-1.717 1.469c-.261.227-.53.449-.791.676-.01.014-.027.021-.037.035a4.2 4.2 0 011.899 1.865 4.25 4.25 0 01-.989 5.143 1.251 1.251 0 00-.378 1.482l.814 1.584a1.253 1.253 0 001.428.557c.103-.024 58.633-30.148 58.714-30.21a1.251 1.251 0 00.378-1.482l-.815-1.584a1.253 1.253 0 00-1.427-.559 4.244 4.244 0 01-3.763-7.332 1.251 1.251 0 00.379-1.481l-.815-1.584a1.253 1.253 0 00-1.427-.558 4.244 4.244 0 01-3.764-7.332 1.251 1.251 0 00.379-1.482l-.815-1.584a1.253 1.253 0 00-1.428-.557 4.244 4.244 0 01-3.763-7.332 1.251 1.251 0 00.379-1.482l-.906-1.75a1.021 1.021 0 00-1.38-.443l-8.748 4.498z"/><path class="cost-a" d="M32.232 82.83c.101-.047 50.044-42.915 50.11-43a1.253 1.253 0 00.026-1.528l-1.157-1.346a1.258 1.258 0 00-1.52-.21 4.248 4.248 0 01-5.37-6.261 1.253 1.253 0 00.025-1.528l-.848-.989-.317-.363a1.258 1.258 0 00-1.52-.21 4.248 4.248 0 01-5.37-6.26 1.253 1.253 0 00.026-1.528l-1.158-1.346a1.258 1.258 0 00-1.52-.21 4.248 4.248 0 01-5.37-6.261 1.253 1.253 0 00.026-1.527l-1.283-1.498a1.022 1.022 0 00-1.438-.109S5.388 51.74 5.347 51.792a1.028 1.028 0 00.03 1.294l1.28 1.5a1.258 1.258 0 001.521.209 4.248 4.248 0 015.37 6.26 1.253 1.253 0 00-.026 1.528l1.158 1.347a1.258 1.258 0 001.52.21 4.248 4.248 0 015.37 6.26 1.253 1.253 0 00-.023 1.525l1.156 1.35a1.258 1.258 0 001.521.21 4.248 4.248 0 015.37 6.262 1.253 1.253 0 00-.026 1.527l1.155 1.346a1.231 1.231 0 001.509.21zm17.297-56.64a2.072 2.072 0 113.144-2.701l9.042 10.544 5.578 6.494a2.073 2.073 0 01.062 2.628 2.251 2.251 0 01-.283.294 2.075 2.075 0 01-2.922-.22l-6.218-7.25zM20.593 51.025a2.072 2.072 0 013.144-2.7l3.121 3.64 3.543 4.127 2.857 3.328 5.105 5.938a2.073 2.073 0 01.059 2.62 2.25 2.25 0 01-.282.294.986.986 0 01-.135.106 2.067 2.067 0 01-2.785-.335l-1.033-1.197-2.67-3.103z"/></svg>