<svg xmlns="http://www.w3.org/2000/svg" xmlns:xlink="http://www.w3.org/1999/xlink" width="67.1" height="61.001"
  viewBox="0 0 67.1 61.001">
  <defs>
    <style>
      .activity-a {
        fill: url(#activity-a);
      }
    </style>
    <linearGradient id="activity-a" x1="0.5" x2="0.5" y2="1" gradientUnits="objectBoundingBox">
      <stop offset="0" stop-color="#88ec00" />
      <stop offset="1" stop-color="#e79c07" />
    </linearGradient>
  </defs>
  <g transform="translate(-0.001 -23.271)">
    <path class="activity-a"
      d="M145.508,132.47a1.355,1.355,0,0,0-1.746.15l-18.547,18.6a1.472,1.472,0,0,0,1.042,2.511h5.371L125.016,167.7a1.359,1.359,0,0,0,2.189,1.542L140,156.445a.982.982,0,1,0-1.389-1.389l-10.322,10.322L133.7,153.94a1.522,1.522,0,0,0-1.376-2.173h-4.883l15.2-15.24-5.434,11.352a1.522,1.522,0,0,0,1.372,2.179h5.027L141.666,152a.982.982,0,1,0,1.389,1.389l2.783-2.783a1.472,1.472,0,0,0-1.041-2.513h-5.514l6.666-13.927a1.355,1.355,0,0,0-.442-1.7Z"
      transform="translate(-108.43 -94.671)" />
    <path class="activity-a"
      d="M67.1,36.267a12.912,12.912,0,0,0-3.8-9.179.982.982,0,1,0-1.391,1.387A10.993,10.993,0,1,1,58.4,26.1a.982.982,0,0,0,.765-1.809,13,13,0,0,0-17.5,8.214,27.764,27.764,0,0,0-40.4,15.721.982.982,0,1,0,1.875.586,25.8,25.8,0,0,1,38.088-14.28A13,13,0,0,0,52.472,49.16,25.789,25.789,0,1,1,2,55.232c.034-.673.094-1.35.179-2.014a.982.982,0,1,0-1.949-.249c-.091.714-.156,1.442-.192,2.165a27.751,27.751,0,1,0,54.5-5.88A13.011,13.011,0,0,0,67.1,36.267Z"
      transform="translate(0)" />
    <path class="activity-a"
      d="M384.536,67.226a.982.982,0,0,0-.982.982v2.1a4.268,4.268,0,1,0,5.136,5.136H392.2a.982.982,0,0,0,0-1.965h-3.506a4.281,4.281,0,0,0-3.171-3.171v-2.1A.982.982,0,0,0,384.536,67.226Zm2.3,7.235a2.3,2.3,0,1,1-2.3-2.3A2.307,2.307,0,0,1,386.84,74.461Z"
      transform="translate(-330.43 -38.194)" />
  </g>
</svg>
