<svg xmlns="http://www.w3.org/2000/svg" xmlns:xlink="http://www.w3.org/1999/xlink" width="61.001" height="61.001"
  viewBox="0 0 61.001 61.001">
  <defs>
    <style>
      .route-a {
        fill: url(#route-a);
      }
    </style>
    <linearGradient id="route-a" x1="0.5" x2="0.5" y2="1" gradientUnits="objectBoundingBox">
      <stop offset="0" stop-color="#88ec00" />
      <stop offset="1" stop-color="#e79c07" />
    </linearGradient>
  </defs>
  <g transform="translate(0 30.154)">
    <path class="route-a"
      d="M12.033,253.09a12.033,12.033,0,0,0-9.358,19.6l.01.012.916,1.174a1.191,1.191,0,0,0,1.879-1.466l-.892-1.143-.039-.051a9.65,9.65,0,1,1,14.928.05,1.176,1.176,0,0,0-.083.114l-7.36,9.43-.537-.688a1.191,1.191,0,1,0-1.879,1.466l1.476,1.892a1.192,1.192,0,0,0,.939.459h0a1.191,1.191,0,0,0,.939-.458l8.369-10.721c.017-.021.033-.043.048-.065a12.034,12.034,0,0,0-9.356-19.6Z"
      transform="translate(0 -253.09)" />
  </g>
  <g transform="translate(6.431 52.964)">
    <path class="route-a" d="M56.143,445.049,56.1,445a1.191,1.191,0,0,0-1.878,1.467l.039.05a1.191,1.191,0,0,0,1.878-1.467Z"
      transform="translate(-53.974 -444.541)" />
  </g>
  <g transform="translate(5.123 35.45)">
    <path class="route-a"
      d="M49.91,297.542a6.91,6.91,0,1,0,6.91,6.91A6.918,6.918,0,0,0,49.91,297.542Zm0,11.438a4.527,4.527,0,1,1,4.527-4.527A4.533,4.533,0,0,1,49.91,308.98Z"
      transform="translate(-43 -297.542)" />
  </g>
  <g transform="translate(44.016 0)">
    <g transform="translate(0 0)">
      <path class="route-a"
        d="M385.829,6.763,374.392.16A1.191,1.191,0,0,0,372.6,1.192V21.565h-1.973a1.191,1.191,0,0,0,0,2.383h6.329a1.191,1.191,0,0,0,0-2.383h-1.973V15.087l10.842-6.26a1.191,1.191,0,0,0,0-2.064Zm-10.842,5.572V3.255l7.863,4.54Z"
        transform="translate(-369.44 0)" />
    </g>
  </g>
  <g transform="translate(36.438 11.015)">
    <path class="route-a" d="M307.324,92.45h-.3a1.191,1.191,0,1,0,0,2.383h.3a1.191,1.191,0,0,0,0-2.383Z"
      transform="translate(-305.835 -92.45)" />
  </g>
  <g transform="translate(23.033 28.725)">
    <path class="route-a"
      d="M195.434,241.338c-.167-.05-.334-.107-.5-.168a1.191,1.191,0,0,0-.84,2.23c.212.08.43.154.647.219a1.191,1.191,0,0,0,.69-2.281Z"
      transform="translate(-193.326 -241.093)" />
  </g>
  <g transform="translate(24.373 11.105)">
    <path class="route-a"
      d="M207.536,94.232a1.191,1.191,0,0,0-1.346-1.013c-.224.032-.45.071-.672.118a1.191,1.191,0,1,0,.488,2.332c.171-.036.345-.066.517-.091A1.191,1.191,0,0,0,207.536,94.232Z"
      transform="translate(-204.57 -93.207)" />
  </g>
  <g transform="translate(18.461 24.949)">
    <path class="route-a"
      d="M157.445,210.405c-.1-.142-.2-.29-.29-.438a1.191,1.191,0,0,0-2.029,1.249c.119.193.245.384.377.569a1.191,1.191,0,1,0,1.943-1.38Z"
      transform="translate(-154.949 -209.4)" />
  </g>
  <g transform="translate(19.281 13.799)">
    <path class="route-a"
      d="M164.257,116.151a1.191,1.191,0,0,0-1.685.027c-.158.163-.313.334-.458.506a1.191,1.191,0,0,0,1.818,1.541c.112-.132.231-.263.353-.389A1.191,1.191,0,0,0,164.257,116.151Z"
      transform="translate(-161.831 -115.815)" />
  </g>
  <g transform="translate(17.119 19.163)">
    <path class="route-a"
      d="M145.049,160.85a1.193,1.193,0,0,0-1.313,1.056c-.024.225-.042.454-.051.679a1.192,1.192,0,0,0,1.14,1.241h.052a1.191,1.191,0,0,0,1.189-1.141c.007-.174.021-.35.04-.524A1.192,1.192,0,0,0,145.049,160.85Z"
      transform="translate(-143.684 -160.843)" />
  </g>
  <g transform="translate(30.398 11.015)">
    <path class="route-a" d="M256.939,92.45h-.6a1.191,1.191,0,1,0,0,2.383h.6a1.191,1.191,0,1,0,0-2.383Z"
      transform="translate(-255.144 -92.45)" />
  </g>
  <g transform="translate(29.011 29.309)">
    <path class="route-a" d="M244.989,246h-.3a1.191,1.191,0,1,0,0,2.383h.3a1.191,1.191,0,0,0,0-2.383Z"
      transform="translate(-243.5 -246.001)" />
  </g>
  <g transform="translate(24.662 47.604)">
    <path class="route-a" d="M208.489,399.551h-.3a1.191,1.191,0,1,0,0,2.383h.3a1.191,1.191,0,1,0,0-2.383Z"
      transform="translate(-207 -399.551)" />
  </g>
  <g transform="translate(36.155 47.604)">
    <path class="route-a" d="M305.239,399.551h-.589a1.191,1.191,0,1,0,0,2.383h.589a1.191,1.191,0,1,0,0-2.383Z"
      transform="translate(-303.458 -399.551)" />
  </g>
  <g transform="translate(46.413 42.753)">
    <path class="route-a"
      d="M391.6,358.98a1.191,1.191,0,0,0-1.612.49c-.08.15-.166.3-.255.444a1.191,1.191,0,1,0,2.026,1.254c.116-.187.227-.381.331-.576A1.191,1.191,0,0,0,391.6,358.98Z"
      transform="translate(-389.555 -358.84)" />
  </g>
  <g transform="translate(30.263 47.604)">
    <path class="route-a" d="M255.788,399.551H255.2a1.191,1.191,0,1,0,0,2.383h.589a1.191,1.191,0,1,0,0-2.383Z"
      transform="translate(-254.007 -399.551)" />
  </g>
  <g transform="translate(47.668 37.045)">
    <path class="route-a"
      d="M402.541,312.6c-.02-.22-.047-.443-.081-.661a1.191,1.191,0,1,0-2.355.365c.026.168.047.339.062.508a1.191,1.191,0,0,0,1.185,1.085c.036,0,.071,0,.107,0A1.191,1.191,0,0,0,402.541,312.6Z"
      transform="translate(-400.092 -310.93)" />
  </g>
  <g transform="translate(45.01 31.903)">
    <path class="route-a"
      d="M380.268,268.585c-.148-.164-.3-.325-.461-.479a1.191,1.191,0,1,0-1.663,1.707c.122.119.242.243.356.37a1.191,1.191,0,0,0,1.768-1.6Z"
      transform="translate(-377.783 -267.768)" />
  </g>
  <g transform="translate(39.798 29.383)">
    <path class="route-a"
      d="M336.04,246.735c-.217-.042-.438-.077-.657-.106a1.191,1.191,0,0,0-.3,2.364c.169.022.339.049.506.081a1.191,1.191,0,1,0,.454-2.339Z"
      transform="translate(-334.04 -246.619)" />
  </g>
  <g transform="translate(41.968 46.742)">
    <path class="route-a"
      d="M355.059,393a1.191,1.191,0,0,0-1.585-.572c-.153.072-.311.14-.47.2a1.191,1.191,0,1,0,.87,2.218c.207-.081.413-.17.613-.264A1.192,1.192,0,0,0,355.059,393Z"
      transform="translate(-352.247 -392.317)" />
  </g>
  <g transform="translate(34.192 29.309)">
    <path class="route-a" d="M288.477,246h-.3a1.191,1.191,0,0,0,0,2.383h.3a1.191,1.191,0,0,0,0-2.383Z"
      transform="translate(-286.988 -246.001)" />
  </g>
</svg>
