<svg xmlns="http://www.w3.org/2000/svg" width="1280" height="174.67" viewBox="0 0 1280 174.67">
  <path
    d="M1.92,144.411H42.039V64.991h.546L92.8,144.411h44.213L77.792,58.441l56.222-77.783H89.8L42.585,53.8h-.546V-19.342H1.92Zm10.1-7.642V-11.7H31.941V136.769Zm131.821,7.642h43.122l7.915-16.921h64.682l8.188,16.921h43.122L230.628-24.8h-7.1ZM207.43,98.833l19.1-41.484h.546l18.832,41.484Zm49.4,0h22.107l18.013,37.936H274.3Zm-99.343,37.936L175.5,98.833H197.6l-17.74,37.936Zm146.286-25.928H382.1v33.569h39.3V110.842h25.382V77.272H421.4V-19.342H381.28L303.771,106.2Zm87.881-33.569V33.605l20.2-28.657V77.272Zm-30.294,0L382.1,42.339V77.272Zm30.294,59.5V110.842h20.2v25.928Zm76.418,7.642h40.119V64.991h.546l50.217,79.42h44.213l-59.224-85.97,56.222-77.783H555.95L508.734,53.8h-.546V-19.342H468.069Zm10.1-7.642V-11.7h19.923V136.769Zm131.821,7.642H653.11l7.915-16.921h64.682l8.188,16.921h43.121L696.777-24.8h-7.1Zm63.591-45.578,19.1-41.484h.546l18.832,41.484Zm49.4,0h22.107L763.1,136.769H740.445Zm-99.343,37.936,18.013-37.936h22.107l-17.74,37.936Z"
    transform="translate(502.984 24.8)" fill="#ffffff" />
  <path
    d="M1.92,144.411H41.766V85.46H70.423c30.294,0,53.22-21.834,53.22-52.4,0-27.565-19.65-52.4-53.22-52.4H1.92Zm10.1-7.642V-11.7h19.65V136.769Zm29.748-85.7v-36.3H66.6c10.644,0,16.1,8.188,16.1,17.194,0,9.552-5.731,19.1-16.1,19.1ZM149.3,144.411h40.119V83.277l41.757,61.134h50.217L237.178,83.55c24.29-6,38.755-22.107,38.755-50.763,0-30.84-22.925-52.128-58.132-52.128H149.3Zm10.1-7.642V-11.7h19.923V136.769Zm30.021-85.151V14.774H220.53c9.006,0,16.1,8.461,16.1,18.013s-6,18.832-15.011,18.832Zm107.8,10.917c0,48.853,36.3,87.335,88.154,87.335,51.582,0,88.154-38.482,88.154-87.335S436.956-24.8,385.374-24.8C333.519-24.8,297.221,13.682,297.221,62.535Zm40.665,0c0-27.565,18.286-49.4,47.488-49.4,28.93,0,47.488,21.834,47.488,49.4s-18.559,49.4-47.488,49.4C356.172,111.933,337.886,90.1,337.886,62.535Zm-28.93,17.194h21.015c6.55,23.471,26.746,40.665,55.4,40.665s48.853-16.921,55.4-40.665h21.015c-7.369,35.753-37.117,61.953-76.418,61.953C345.8,141.682,316.052,115.754,308.956,79.729Z"
    transform="translate(-1.92 24.8)" fill="#ffffff" />
</svg>
