<svg xmlns="http://www.w3.org/2000/svg" xmlns:xlink="http://www.w3.org/1999/xlink" width="59.5" height="35.096"
  viewBox="0 0 59.5 35.096">
  <defs>
    <style>
      .barbell-a {
        fill: url(#barbell-a);
      }
    </style>
    <linearGradient id="barbell-a" x1="0.5" x2="0.5" y2="1" gradientUnits="objectBoundingBox">
      <stop offset="0" stop-color="#88ec00" />
      <stop offset="1" stop-color="#e79c07" />
    </linearGradient>
  </defs>
  <g transform="translate(0 -105)">
    <path class="barbell-a"
      d="M57.466,117.028H56.014v-5.869a2.5,2.5,0,0,0-2.5-2.5H49.8a2.486,2.486,0,0,0-.755.117v-.35A3.432,3.432,0,0,0,45.613,105H40.964a3.432,3.432,0,0,0-3.428,3.428v10.26H21.964v-10.26A3.432,3.432,0,0,0,18.536,105H13.887a3.432,3.432,0,0,0-3.428,3.428v.35a2.486,2.486,0,0,0-.755-.117H5.985a2.5,2.5,0,0,0-2.5,2.5v1.126a.872.872,0,0,0,1.743,0v-1.126a.756.756,0,0,1,.755-.755H9.7a.756.756,0,0,1,.755.755v22.777a.756.756,0,0,1-.755.755H5.985a.756.756,0,0,1-.755-.755V116.014a.872.872,0,0,0-1.743,0v1.013H2.034A2.036,2.036,0,0,0,0,119.062v6.973a2.036,2.036,0,0,0,2.034,2.034H3.486v5.869a2.5,2.5,0,0,0,2.5,2.5H9.7a2.486,2.486,0,0,0,.755-.117v.35a3.432,3.432,0,0,0,3.428,3.428h4.648a3.432,3.432,0,0,0,3.428-3.428v-10.26h1.269a.872.872,0,0,0,0-1.743H21.964v-4.232H37.536v4.232H27.011a.872.872,0,0,0,0,1.743H37.536v10.26a3.432,3.432,0,0,0,3.428,3.428h4.648a3.432,3.432,0,0,0,3.428-3.428v-.35a2.486,2.486,0,0,0,.755.117h3.719a2.5,2.5,0,0,0,2.5-2.5V132.76a.872.872,0,0,0-1.743,0v1.177a.756.756,0,0,1-.755.755H49.8a.756.756,0,0,1-.755-.755V111.159a.756.756,0,0,1,.755-.755h3.719a.756.756,0,0,1,.755.755V129a.872.872,0,0,0,1.743,0v-.93h1.453a2.036,2.036,0,0,0,2.034-2.034v-6.973A2.036,2.036,0,0,0,57.466,117.028Zm-55.433,9.3a.291.291,0,0,1-.291-.291v-6.973a.291.291,0,0,1,.291-.291H3.486v7.554Zm18.187,10.343a1.687,1.687,0,0,1-1.685,1.685H13.887a1.687,1.687,0,0,1-1.685-1.685V108.428a1.687,1.687,0,0,1,1.685-1.685h4.648a1.687,1.687,0,0,1,1.685,1.685Zm27.077,0a1.687,1.687,0,0,1-1.685,1.685H40.964a1.687,1.687,0,0,1-1.685-1.685V108.428a1.687,1.687,0,0,1,1.685-1.685h4.648a1.687,1.687,0,0,1,1.685,1.685Zm10.459-10.633a.291.291,0,0,1-.291.291H56.014v-7.554h1.453a.291.291,0,0,1,.291.291Z" />
  </g>
</svg>
