<svg xmlns="http://www.w3.org/2000/svg" xmlns:xlink="http://www.w3.org/1999/xlink" width="53.007" height="53.007"
  viewBox="0 0 53.007 53.007">
  <defs>
    <style>
      .face-a {
        fill: url(#face-a);
      }
    </style>
    <linearGradient id="face-a" x1="0.5" x2="0.5" y2="1" gradientUnits="objectBoundingBox">
      <stop offset="0" stop-color="#88ec00" />
      <stop offset="1" stop-color="#e79c07" />
    </linearGradient>
  </defs>
  <g transform="translate(-0.001 0.001)">
    <g transform="translate(0.001 -0.001)">
      <g transform="translate(0 0)">
        <path class="face-a"
          d="M52.53,23.946,45.3,15.373A16.084,16.084,0,0,0,44.337.5,1.035,1.035,0,0,0,42.426.91a25.931,25.931,0,0,1-19.24,19.153A28.122,28.122,0,0,0,2.5,40.414Q1.46,40.982.465,41.638a1.035,1.035,0,1,0,1.142,1.727,25.963,25.963,0,0,1,8.3-3.6A28,28,0,0,0,19.416,35.5a1.035,1.035,0,0,0-1.182-1.7,25.933,25.933,0,0,1-8.805,3.945A28.131,28.131,0,0,0,5.011,39.2,25.918,25.918,0,0,1,23.669,22.076a28.13,28.13,0,0,0,4.415-1.453,25.9,25.9,0,0,1-3.495,6.891,1.035,1.035,0,1,0,1.687,1.2A27.971,27.971,0,0,0,30.6,19.409a28.114,28.114,0,0,0,6.408-4.8A28.106,28.106,0,0,0,43.7,3.9a13.922,13.922,0,0,1-.551,11.159,1.035,1.035,0,0,0,.132,1.136l7.634,9.047-2.96,1.947a1.035,1.035,0,0,0-.318,1.4l1.139,1.892a1.824,1.824,0,0,1-.859,2.623,1.035,1.035,0,0,0-.289,1.729,1.7,1.7,0,0,1-.347,2.778l-.064.033a1.035,1.035,0,0,0-.558.918v3.468a3.317,3.317,0,0,1-3.313,3.313H37.273a13.8,13.8,0,0,0-7.48,2.2L24.262,51.1a1.035,1.035,0,1,0,1.12,1.741l5.531-3.557a11.734,11.734,0,0,1,6.36-1.869H43.35a5.39,5.39,0,0,0,5.383-5.383v-2.89a3.77,3.77,0,0,0,1.088-4.825,3.9,3.9,0,0,0,.731-4.9l-.626-1.04,2.168-1.427a2.028,2.028,0,0,0,.435-3Z"
          transform="translate(-0.001 0)" />
        <path class="face-a"
          d="M.529,19.784a1.035,1.035,0,0,0,1.41-.394,18.925,18.925,0,0,0,1.913-4.878,16.783,16.783,0,0,1,12.47-12.47A1.035,1.035,0,0,0,15.84.028a18.931,18.931,0,0,0-14,14,16.857,16.857,0,0,1-1.7,4.345,1.035,1.035,0,0,0,.394,1.41Z"
          transform="translate(-0.001 0.001)" />
        <path class="face-a" d="M207.537,295.841a1.034,1.034,0,1,0,.732.3A1.042,1.042,0,0,0,207.537,295.841Z"
          transform="translate(-185.123 -265.213)" />
      </g>
    </g>
  </g>
</svg>
