<svg xmlns="http://www.w3.org/2000/svg" xmlns:xlink="http://www.w3.org/1999/xlink" width="60.5" height="48.33"
  viewBox="0 0 60.5 48.33">
  <defs>
    <style>
      .favourite-a {
        fill: url(#favourite-a);
      }
    </style>
    <linearGradient id="favourite-a" x1="0.5" x2="0.5" y2="1" gradientUnits="objectBoundingBox">
      <stop offset="0" stop-color="#88ec00" />
      <stop offset="1" stop-color="#e79c07" />
    </linearGradient>
  </defs>
  <g transform="translate(0 -51.491)">
    <path class="favourite-a"
      d="M28.089,99C3.425,77.055,5.106,78.559,4.766,78.232l0,0a15.607,15.607,0,0,1,3.018-24.7.886.886,0,0,1,.885,1.536A13.82,13.82,0,0,0,6.42,77.347L29.267,97.675a1.477,1.477,0,0,0,1.964,0l7.319-6.512a.886.886,0,0,1,1.178,1.324L32.409,99a3.25,3.25,0,0,1-4.32,0Zm13.478-9.334a.886.886,0,0,1,.073-1.251L54.078,77.348a13.486,13.486,0,0,0,4.552-8.533,13.805,13.805,0,0,0-27.2-4.609,1.208,1.208,0,0,1-2.362,0A13.86,13.86,0,0,0,12.259,53.648a.886.886,0,1,1-.407-1.725,15.615,15.615,0,0,1,18.4,9.948,15.584,15.584,0,0,1,26.007-5.515,16,16,0,0,1,4.133,12.672,15.233,15.233,0,0,1-5.133,9.643L42.818,89.738A.886.886,0,0,1,41.567,89.665Z"
      transform="translate(0 0)" />
  </g>
</svg>
