<svg xmlns="http://www.w3.org/2000/svg" xmlns:xlink="http://www.w3.org/1999/xlink" width="25.377" height="60.331"
  viewBox="0 0 25.377 60.331">
  <defs>
    <style>
      .lb-a {
        fill: url(#lb-a);
      }
    </style>
    <linearGradient id="lb-a" x1="0.5" x2="0.5" y2="1" gradientUnits="objectBoundingBox">
      <stop offset="0" stop-color="#88ec00" />
      <stop offset="1" stop-color="#e79c07" />
    </linearGradient>
  </defs>
  <g transform="translate(-148.329)">
    <path class="lb-a"
      d="M164.027,136.664a.884.884,0,0,0-1.243.134l-8.148,10.115a.18.18,0,0,1-.3-.187l4.9-10.836a1.948,1.948,0,0,0-1.672-2.747l-4.563-.24a.18.18,0,0,1-.15-.263l7.034-13.571a1.948,1.948,0,0,0-1.729-2.844h-7.872a.181.181,0,0,1-.179-.2l5.035-14.61a.884.884,0,0,0-1.671-.576L148.41,115.5c-.008.023-.015.047-.021.071a1.948,1.948,0,0,0,1.888,2.425h7.872a.18.18,0,0,1,.16.263l-7.034,13.571a1.948,1.948,0,0,0,1.627,2.841l4.563.24a.18.18,0,0,1,.155.254L152.722,146a1.905,1.905,0,0,0,.754,2.461,1.977,1.977,0,0,0,1.038.3,1.918,1.918,0,0,0,1.5-.739l8.148-10.115a.884.884,0,0,0-.134-1.242Z"
      transform="translate(0 -88.43)" />
    <path class="lb-a"
      d="M218.858,20.437h-5.643a.18.18,0,0,1-.165-.253l7.679-17.453A1.947,1.947,0,0,0,218.946,0H206.311a1.946,1.946,0,0,0-1.877,1.429l-2.565,7.443a.884.884,0,0,0,1.671.576l2.575-7.473c.008-.023.015-.047.021-.071a.18.18,0,0,1,.175-.136h12.635a.18.18,0,0,1,.165.253l-7.679,17.452a1.948,1.948,0,0,0,1.783,2.732h5.643a.18.18,0,0,1,.161.261l-8.08,16.213a1.948,1.948,0,0,0,1.743,2.816h2.248a.278.278,0,0,1,.216.452L212.206,45.6a.884.884,0,0,0,1.376,1.109l2.941-3.651a2.045,2.045,0,0,0-1.593-3.328h-2.248a.18.18,0,0,1-.161-.261l8.08-16.213a1.948,1.948,0,0,0-1.743-2.816Z"
      transform="translate(-47.189)" />
  </g>
</svg>
