<svg xmlns="http://www.w3.org/2000/svg" width="77.462" height="54.307"><defs><linearGradient id="mortarboard-a" x1=".5" x2=".5" y2="1" gradientUnits="objectBoundingBox"><stop offset="0" stop-color="#88ec00"/><stop offset="1" stop-color="#e79c07"/></linearGradient></defs><path d="M75.967 88.71l-16.352-5.526a1.135 1.135 0 10-.727 2.15l16.2 5.474-7.624 3.717a3.445 3.445 0 00-1.057-.478l-22.87-5.977a4.893 4.893 0 00-9.7.916v.025a2.908 2.908 0 002.919 2.869h3.948a2.89 2.89 0 002.568-1.533L64.6 95.92l-23.792 11.6a4.711 4.711 0 01-4.149 0L2.378 90.808l34.837-11.774a4.759 4.759 0 013.031 0l13.6 4.6a1.135 1.135 0 00.727-2.15l-13.6-4.6a7.045 7.045 0 00-4.485 0L1.495 88.71a2.2 2.2 0 00-.26 4.065l17.959 8.756a107.344 107.344 0 01-4.136 14.243 4.487 4.487 0 001.439 5.081 57.031 57.031 0 0017.582 9.245 15.251 15.251 0 009.3 0 57.042 57.042 0 0017.583-9.243 4.486 4.486 0 001.439-5.081 107.4 107.4 0 01-4.136-14.242l8.448-4.119v17.079a2.8 2.8 0 00-2.586 2.79v3.307a1.674 1.674 0 00.551 1.24l-.422 6.373a2.162 2.162 0 002.156 2.3h2.871a2.162 2.162 0 002.156-2.3l-.421-6.373a1.674 1.674 0 00.551-1.24v-3.307a2.8 2.8 0 00-2.586-2.79v-17.1a3.44 3.44 0 00-.153-1.007l7.4-3.606a2.2 2.2 0 00-.26-4.065zm-35.262.9h-3.948a.641.641 0 01-.65-.606v-.019a2.6 2.6 0 01.826-1.911 2.627 2.627 0 014.418 1.781.645.645 0 01-.646.756zm18.289 23.246c-6.131 4.8-14.832 8.231-17.829 8.8a1.135 1.135 0 00.425 2.229c3.135-.6 11.724-3.936 18.171-8.761.159.452.342.967.51 1.425a2.223 2.223 0 01-.709 2.518 54.947 54.947 0 01-16.877 8.867 12.984 12.984 0 01-7.91 0 54.95 54.95 0 01-16.875-8.863 2.222 2.222 0 01-.709-2.518l.02-.055c.165-.452.348-.965.49-1.371 6.3 4.71 14.861 8.13 18.17 8.762a1.135 1.135 0 00.425-2.229c-2.829-.539-11.56-3.9-17.828-8.8a106.639 106.639 0 002.829-10.3l14.366 7a6.96 6.96 0 006.138 0l14.365-7a106.6 106.6 0 002.829 10.3zm7.537 15.379l.395-5.967h1.849l.395 5.967zm2.77-10.954V120H66.4v-2.717a.538.538 0 01.531-.531h1.839a.539.539 0 01.53.529z" transform="translate(0 -76.517)" fill="url(#mortarboard-a)"/></svg>