<svg xmlns="http://www.w3.org/2000/svg" width="58.119" height="58.119"><defs><linearGradient id="motivation-a" x1=".5" x2=".5" y2="1" gradientUnits="objectBoundingBox"><stop offset="0" stop-color="#88ec00"/><stop offset="1" stop-color="#e79c07"/></linearGradient><style>.motivation-a{fill:url(#motivation-a)}</style></defs><path class="motivation-a" d="M29.06 5.676a1.135 1.135 0 001.135-1.135V1.135a1.135 1.135 0 00-2.27 0v3.406a1.135 1.135 0 001.135 1.135zm23.838 24.519h4.087a1.135 1.135 0 000-2.27h-4.087a1.135 1.135 0 000 2.27zm-51.763 0h4.087a1.135 1.135 0 000-2.27H1.135a1.135 1.135 0 000 2.27zm45.583-17.869l2.409-2.409a1.135 1.135 0 00-1.605-1.605l-2.409 2.409a1.135 1.135 0 101.605 1.605zm-35.317 0a1.135 1.135 0 101.605-1.605l-2.409-2.409a1.135 1.135 0 00-1.605 1.605z"/><circle class="motivation-a" cx="1" cy="1" r="1" transform="translate(28 56)"/><path class="motivation-a" d="M12.6 27.357v8.514c0 6.222 5.007 9.8 6.811 10.88v10.234a1.135 1.135 0 001.135 1.135h3.405a1.135 1.135 0 000-2.27h-2.27v-9.762a1.139 1.139 0 00-.625-1.014c-.062-.031-6.185-3.194-6.185-9.2V27.36a2.275 2.275 0 012.27-2.271h12.373a5.685 5.685 0 01-5.562 4.542h-3.405a1.135 1.135 0 100 2.27 9.091 9.091 0 019.081 9.081 1.135 1.135 0 102.27 0 5.682 5.682 0 015.676-5.676 1.135 1.135 0 000-2.27 7.944 7.944 0 00-6.584 3.5 11.423 11.423 0 00-4.325-5.113 7.991 7.991 0 004.477-4.089 4.518 4.518 0 003.027 1.155h.862a7.92 7.92 0 001.527-.107 4.536 4.536 0 006.692 2.9v4.584c0 6.008-6.124 9.171-6.183 9.2a1.135 1.135 0 00-.628 1.015v9.762h-2.27a1.135 1.135 0 100 2.27h3.405a1.135 1.135 0 001.135-1.135V46.75c1.8-1.085 6.811-4.658 6.811-10.88v-14.3a4.537 4.537 0 00-6.84-3.913 4.537 4.537 0 00-6.811-3.405 4.54 4.54 0 00-9.023 0 4.537 4.537 0 00-6.84 3.913v4.8a4.549 4.549 0 00-3.406 4.392zm28.379-8.06a2.273 2.273 0 012.27 2.27v5.789a2.27 2.27 0 11-4.541 0v-5.789a2.273 2.273 0 012.271-2.27zm-6.811-3.405a2.273 2.273 0 012.27 2.27v7.492a.792.792 0 01-.065.413 4.762 4.762 0 01-1.745.157h-.46a2.273 2.273 0 01-2.27-2.27v-5.792a2.273 2.273 0 012.27-2.27zm-9.081-1.135a2.27 2.27 0 114.541 0v8.06h-4.541zm-4.541 1.135a2.273 2.273 0 012.27 2.27v4.654h-4.541v-4.654a2.273 2.273 0 012.271-2.27z"/></svg>