<svg xmlns="http://www.w3.org/2000/svg" width="57.798" height="58.001"><defs><linearGradient id="support-a" x1=".5" x2=".5" y2="1" gradientUnits="objectBoundingBox"><stop offset="0" stop-color="#88ec00"/><stop offset="1" stop-color="#e79c07"/></linearGradient><style>.support-a{fill:url(#support-a)}</style></defs><path class="support-a" d="M28.798 7.37a1.141 1.141 0 001.141-1.141V1.141a1.141 1.141 0 10-2.282 0v5.088a1.141 1.141 0 001.141 1.141zm27.887 31.824l-2.015-2.01a3.82 3.82 0 00-4.521-.645l-3.8-3.793.185-.185a3.96 3.96 0 000-5.591 3.916 3.916 0 00-1.986-1.074 3.984 3.984 0 00.157-1.11 3.951 3.951 0 00-3.143-3.87 3.984 3.984 0 00.157-1.11 3.947 3.947 0 00-3.142-3.868 3.948 3.948 0 00-4.22-5.039l-7.526-1.425c-1.148-.218-2.581-.362-3.486.464a2.061 2.061 0 00-.173.179 3.967 3.967 0 00-4.163.915 3.925 3.925 0 00-1.156 2.8 3.989 3.989 0 00.157 1.11 3.951 3.951 0 00-3.142 3.865 3.978 3.978 0 00.157 1.113 3.956 3.956 0 00-2.452 6.1 3.954 3.954 0 00-1.519 6.54l.184.184-3.8 3.791a3.814 3.814 0 00-4.316.748l-2.017 2.011a3.811 3.811 0 000 5.382l2.517 2.514a1.141 1.141 0 001.612-1.614l-2.517-2.514a1.53 1.53 0 010-2.153l2.017-2.011a1.527 1.527 0 011.872-.225 1.151 1.151 0 00.144.176 1.136 1.136 0 00.328.228l11.565 11.548a1.124 1.124 0 00.55.556 1.527 1.527 0 01-.063 2.083l-2.024 2.012a1.533 1.533 0 01-2.157 0l-2.517-2.517a1.141 1.141 0 10-1.613 1.613l2.519 2.519a3.82 3.82 0 005.38 0l2.016-2.014a3.815 3.815 0 00.534-4.712l4.275-4.27.014-.014c.489-.506 1.853-.411 3.171-.32a16.409 16.409 0 003 .02l4.681 4.676a3.813 3.813 0 00.647 4.517l2.016 2.014a3.815 3.815 0 005.381 0l12.233-12.212a3.811 3.811 0 000-5.382zM26.406 11.717l4.949.937-2.959 2.961a7.192 7.192 0 01-1.775-1.29 5.249 5.249 0 01-1.679-2.593 1 1 0 010-.112 3.866 3.866 0 011.473.1zm-5.784.93a1.683 1.683 0 012.129-.2 8.16 8.16 0 002.289 3.528 8.449 8.449 0 003.287 2.036 1.675 1.675 0 01-2.556 2.142l-5.145-5.136a1.68 1.68 0 010-2.365zm-2.981 4.978a1.683 1.683 0 012.371 0l4.143 4.135a1.677 1.677 0 01-2.373 2.369l-3.143-3.142-.015-.014-.983-.983a1.674 1.674 0 010-2.366zm-2.984 4.978a1.688 1.688 0 012.363-.008l3.153 3.151A1.675 1.675 0 0117.8 28.11l-1.143-1.142-2-2a1.678 1.678 0 010-2.368zm-1.987 5.98a1.686 1.686 0 012.374 0l1.144 1.143a1.675 1.675 0 01-2.374 2.363l-.143-.143-.005-.006-.007-.006-.989-.985a1.675 1.675 0 010-2.366zm23.25 12.97a1.141 1.141 0 00-1.613 0l-1.015 1.014c-.964.964-2.712.843-4.4.726-1.835-.128-3.733-.259-4.961 1l-4.2 4.2-10.514-10.5 3.719-3.712a3.956 3.956 0 006.022-3.374v-.029h.03a3.946 3.946 0 003.955-3.95v-.029h.03a3.942 3.942 0 003.955-3.981h.031a3.958 3.958 0 003.377-6.015l3.259-3.258a1.674 1.674 0 01.856-.456c.034 0 .068-.009.1-.016a1.672 1.672 0 011.42 2.838l-.993.989-.01.01-1.143 1.143a1.141 1.141 0 001.612 1.614l1-1 .151-.15a1.68 1.68 0 012.368.006 1.674 1.674 0 010 2.365l-1 1-1.15 1.141a1.141 1.141 0 101.61 1.617l1.148-1.144a1.674 1.674 0 012.37 2.366l-1.99 1.991a1.141 1.141 0 101.614 1.613l.975-.976.017-.016a1.674 1.674 0 012.37 2.366l-.992.991-1.574 1.572a1.141 1.141 0 001.612 1.615l.77-.769 3.69 3.686L37.92 48.539l-3.765-3.76a4.486 4.486 0 00.749-.6l1.014-1.013a1.14 1.14 0 000-1.613zm19.154 1.413L42.846 55.175a1.533 1.533 0 01-2.156 0l-2.016-2.014a1.526 1.526 0 010-2.15l12.228-12.213a1.533 1.533 0 012.157 0l2.015 2.01a1.529 1.529 0 010 2.153zM13.648 6.408a1.141 1.141 0 001.612-1.615L11.103.644a1.141 1.141 0 10-1.612 1.615zm29.493.334a1.138 1.138 0 00.806-.334l4.154-4.149A1.141 1.141 0 1046.489.645l-4.154 4.149a1.141 1.141 0 00.806 1.948z"/><path class="support-a" d="M7.015 49.074a1.141 1.141 0 00.014 1.613 1.141 1.141 0 10-.017-1.617zm31.695-9.169a1.141 1.141 0 10-.513-2.16h-.006a1.14 1.14 0 00.519 2.157z"/></svg>